%TF.GenerationSoftware,KiCad,Pcbnew,(6.0.9)*%
%TF.CreationDate,2023-10-22T03:23:37+00:00*%
%TF.ProjectId,LED Torch,4c454420-546f-4726-9368-2e6b69636164,0.1*%
%TF.SameCoordinates,Original*%
%TF.FileFunction,Legend,Bot*%
%TF.FilePolarity,Positive*%
%FSLAX46Y46*%
G04 Gerber Fmt 4.6, Leading zero omitted, Abs format (unit mm)*
G04 Created by KiCad (PCBNEW (6.0.9)) date 2023-10-22 03:23:37*
%MOMM*%
%LPD*%
G01*
G04 APERTURE LIST*
%ADD10C,0.150000*%
%ADD11C,0.010000*%
G04 APERTURE END LIST*
D10*
X100583809Y-65492380D02*
X100250476Y-66492380D01*
X99917142Y-65492380D01*
X99393333Y-65492380D02*
X99298095Y-65492380D01*
X99202857Y-65540000D01*
X99155238Y-65587619D01*
X99107619Y-65682857D01*
X99060000Y-65873333D01*
X99060000Y-66111428D01*
X99107619Y-66301904D01*
X99155238Y-66397142D01*
X99202857Y-66444761D01*
X99298095Y-66492380D01*
X99393333Y-66492380D01*
X99488571Y-66444761D01*
X99536190Y-66397142D01*
X99583809Y-66301904D01*
X99631428Y-66111428D01*
X99631428Y-65873333D01*
X99583809Y-65682857D01*
X99536190Y-65587619D01*
X99488571Y-65540000D01*
X99393333Y-65492380D01*
X98631428Y-66397142D02*
X98583809Y-66444761D01*
X98631428Y-66492380D01*
X98679047Y-66444761D01*
X98631428Y-66397142D01*
X98631428Y-66492380D01*
X97631428Y-66492380D02*
X98202857Y-66492380D01*
X97917142Y-66492380D02*
X97917142Y-65492380D01*
X98012380Y-65635238D01*
X98107619Y-65730476D01*
X98202857Y-65778095D01*
%TO.C,REF\u002A\u002A*%
G36*
X93367002Y-74464242D02*
G01*
X93401247Y-74485142D01*
X93436729Y-74513873D01*
X93436729Y-75375871D01*
X93401247Y-75404602D01*
X93359495Y-75427867D01*
X93311832Y-75428980D01*
X93269976Y-75401696D01*
X93264815Y-75395486D01*
X93257538Y-75382881D01*
X93251937Y-75364666D01*
X93247794Y-75337347D01*
X93244892Y-75297433D01*
X93243014Y-75241430D01*
X93241941Y-75165847D01*
X93241457Y-75067190D01*
X93241344Y-74941966D01*
X93241344Y-74513873D01*
X93276826Y-74485142D01*
X93308396Y-74465477D01*
X93339037Y-74456410D01*
X93367002Y-74464242D01*
G37*
D11*
X93367002Y-74464242D02*
X93401247Y-74485142D01*
X93436729Y-74513873D01*
X93436729Y-75375871D01*
X93401247Y-75404602D01*
X93359495Y-75427867D01*
X93311832Y-75428980D01*
X93269976Y-75401696D01*
X93264815Y-75395486D01*
X93257538Y-75382881D01*
X93251937Y-75364666D01*
X93247794Y-75337347D01*
X93244892Y-75297433D01*
X93243014Y-75241430D01*
X93241941Y-75165847D01*
X93241457Y-75067190D01*
X93241344Y-74941966D01*
X93241344Y-74513873D01*
X93276826Y-74485142D01*
X93308396Y-74465477D01*
X93339037Y-74456410D01*
X93367002Y-74464242D01*
G36*
X100658184Y-74454846D02*
G01*
X100673372Y-74463017D01*
X100687416Y-74477212D01*
X100702443Y-74496011D01*
X100708371Y-74503948D01*
X100716357Y-74517920D01*
X100722454Y-74536327D01*
X100726916Y-74562827D01*
X100729997Y-74601083D01*
X100731951Y-74654755D01*
X100733033Y-74727503D01*
X100733495Y-74822988D01*
X100733593Y-74944872D01*
X100733562Y-75022797D01*
X100733272Y-75128091D01*
X100732461Y-75209227D01*
X100730875Y-75269866D01*
X100728262Y-75313669D01*
X100724366Y-75344296D01*
X100718933Y-75365409D01*
X100711710Y-75380667D01*
X100702443Y-75393733D01*
X100661931Y-75426209D01*
X100615410Y-75430042D01*
X100566175Y-75404626D01*
X100560605Y-75400000D01*
X100549720Y-75388646D01*
X100541651Y-75373268D01*
X100535816Y-75349526D01*
X100531633Y-75313084D01*
X100528521Y-75259604D01*
X100525897Y-75184747D01*
X100523179Y-75084177D01*
X100515664Y-74792435D01*
X100162469Y-75112814D01*
X100064169Y-75201718D01*
X99977391Y-75279091D01*
X99907902Y-75338946D01*
X99853217Y-75382777D01*
X99810854Y-75412077D01*
X99778332Y-75428340D01*
X99753166Y-75433060D01*
X99732875Y-75427731D01*
X99714976Y-75413846D01*
X99696987Y-75392899D01*
X99688672Y-75381605D01*
X99681174Y-75367523D01*
X99675568Y-75348673D01*
X99671638Y-75321443D01*
X99669168Y-75282221D01*
X99667944Y-75227394D01*
X99667751Y-75153348D01*
X99668373Y-75056471D01*
X99669594Y-74933150D01*
X99674007Y-74513835D01*
X99709489Y-74485123D01*
X99744191Y-74463566D01*
X99787937Y-74459877D01*
X99833910Y-74485110D01*
X99839651Y-74489882D01*
X99850478Y-74501238D01*
X99858505Y-74516671D01*
X99864310Y-74540510D01*
X99868474Y-74577084D01*
X99871576Y-74630722D01*
X99874193Y-74705754D01*
X99876906Y-74806508D01*
X99884421Y-75099207D01*
X100124895Y-74881138D01*
X100240374Y-74776448D01*
X100341253Y-74685392D01*
X100423979Y-74611702D01*
X100490678Y-74553960D01*
X100543476Y-74510749D01*
X100584499Y-74480649D01*
X100615874Y-74462244D01*
X100639727Y-74454116D01*
X100658184Y-74454846D01*
G37*
X100658184Y-74454846D02*
X100673372Y-74463017D01*
X100687416Y-74477212D01*
X100702443Y-74496011D01*
X100708371Y-74503948D01*
X100716357Y-74517920D01*
X100722454Y-74536327D01*
X100726916Y-74562827D01*
X100729997Y-74601083D01*
X100731951Y-74654755D01*
X100733033Y-74727503D01*
X100733495Y-74822988D01*
X100733593Y-74944872D01*
X100733562Y-75022797D01*
X100733272Y-75128091D01*
X100732461Y-75209227D01*
X100730875Y-75269866D01*
X100728262Y-75313669D01*
X100724366Y-75344296D01*
X100718933Y-75365409D01*
X100711710Y-75380667D01*
X100702443Y-75393733D01*
X100661931Y-75426209D01*
X100615410Y-75430042D01*
X100566175Y-75404626D01*
X100560605Y-75400000D01*
X100549720Y-75388646D01*
X100541651Y-75373268D01*
X100535816Y-75349526D01*
X100531633Y-75313084D01*
X100528521Y-75259604D01*
X100525897Y-75184747D01*
X100523179Y-75084177D01*
X100515664Y-74792435D01*
X100162469Y-75112814D01*
X100064169Y-75201718D01*
X99977391Y-75279091D01*
X99907902Y-75338946D01*
X99853217Y-75382777D01*
X99810854Y-75412077D01*
X99778332Y-75428340D01*
X99753166Y-75433060D01*
X99732875Y-75427731D01*
X99714976Y-75413846D01*
X99696987Y-75392899D01*
X99688672Y-75381605D01*
X99681174Y-75367523D01*
X99675568Y-75348673D01*
X99671638Y-75321443D01*
X99669168Y-75282221D01*
X99667944Y-75227394D01*
X99667751Y-75153348D01*
X99668373Y-75056471D01*
X99669594Y-74933150D01*
X99674007Y-74513835D01*
X99709489Y-74485123D01*
X99744191Y-74463566D01*
X99787937Y-74459877D01*
X99833910Y-74485110D01*
X99839651Y-74489882D01*
X99850478Y-74501238D01*
X99858505Y-74516671D01*
X99864310Y-74540510D01*
X99868474Y-74577084D01*
X99871576Y-74630722D01*
X99874193Y-74705754D01*
X99876906Y-74806508D01*
X99884421Y-75099207D01*
X100124895Y-74881138D01*
X100240374Y-74776448D01*
X100341253Y-74685392D01*
X100423979Y-74611702D01*
X100490678Y-74553960D01*
X100543476Y-74510749D01*
X100584499Y-74480649D01*
X100615874Y-74462244D01*
X100639727Y-74454116D01*
X100658184Y-74454846D01*
G36*
X93945208Y-74468940D02*
G01*
X93969119Y-74493585D01*
X93996546Y-74534966D01*
X94029607Y-74595790D01*
X94070420Y-74678763D01*
X94121104Y-74786594D01*
X94140587Y-74828376D01*
X94180193Y-74912496D01*
X94214935Y-74985196D01*
X94242886Y-75042507D01*
X94262120Y-75080455D01*
X94270711Y-75095069D01*
X94272520Y-75094296D01*
X94285823Y-75075727D01*
X94308844Y-75036401D01*
X94338928Y-74980994D01*
X94373422Y-74914180D01*
X94394687Y-74872258D01*
X94433230Y-74798562D01*
X94463170Y-74746617D01*
X94487422Y-74712697D01*
X94508898Y-74693079D01*
X94530512Y-74684040D01*
X94555177Y-74681854D01*
X94569160Y-74682487D01*
X94590616Y-74688088D01*
X94611005Y-74702552D01*
X94633103Y-74729542D01*
X94659689Y-74772725D01*
X94693540Y-74835765D01*
X94737434Y-74922328D01*
X94750392Y-74947963D01*
X94782954Y-75010096D01*
X94809895Y-75058241D01*
X94828710Y-75088049D01*
X94836897Y-75095168D01*
X94838717Y-75090813D01*
X94851198Y-75062975D01*
X94873646Y-75013796D01*
X94904156Y-74947426D01*
X94940823Y-74868014D01*
X94981742Y-74779707D01*
X95017309Y-74703525D01*
X95056749Y-74620995D01*
X95087465Y-74560100D01*
X95111401Y-74517442D01*
X95130502Y-74489625D01*
X95146713Y-74473253D01*
X95161978Y-74464931D01*
X95174506Y-74461080D01*
X95207930Y-74460882D01*
X95244067Y-74481308D01*
X95245798Y-74482620D01*
X95275200Y-74512756D01*
X95289909Y-74542345D01*
X95289971Y-74543197D01*
X95283926Y-74566711D01*
X95266799Y-74612731D01*
X95240493Y-74677096D01*
X95206910Y-74755645D01*
X95167952Y-74844221D01*
X95125522Y-74938661D01*
X95081522Y-75034807D01*
X95037854Y-75128499D01*
X94996420Y-75215576D01*
X94959123Y-75291880D01*
X94927864Y-75353249D01*
X94904546Y-75395525D01*
X94891071Y-75414547D01*
X94845262Y-75432345D01*
X94789748Y-75423876D01*
X94782606Y-75417622D01*
X94761532Y-75388131D01*
X94731973Y-75339190D01*
X94696803Y-75275661D01*
X94658894Y-75202407D01*
X94552686Y-74990397D01*
X94455248Y-75185563D01*
X94442340Y-75211246D01*
X94406421Y-75280940D01*
X94374431Y-75340571D01*
X94349449Y-75384486D01*
X94334556Y-75407032D01*
X94333030Y-75408687D01*
X94295591Y-75429039D01*
X94248911Y-75431280D01*
X94207584Y-75414547D01*
X94204354Y-75410754D01*
X94188031Y-75383294D01*
X94161754Y-75333300D01*
X94127266Y-75264298D01*
X94086310Y-75179814D01*
X94040630Y-75083373D01*
X93991969Y-74978503D01*
X93965022Y-74919759D01*
X93916064Y-74812281D01*
X93878178Y-74727502D01*
X93850187Y-74662353D01*
X93830912Y-74613764D01*
X93819178Y-74578667D01*
X93813805Y-74553992D01*
X93813616Y-74536672D01*
X93817434Y-74523636D01*
X93836948Y-74495834D01*
X93872366Y-74468806D01*
X93873372Y-74468350D01*
X93899453Y-74459030D01*
X93922692Y-74458324D01*
X93945208Y-74468940D01*
G37*
X93945208Y-74468940D02*
X93969119Y-74493585D01*
X93996546Y-74534966D01*
X94029607Y-74595790D01*
X94070420Y-74678763D01*
X94121104Y-74786594D01*
X94140587Y-74828376D01*
X94180193Y-74912496D01*
X94214935Y-74985196D01*
X94242886Y-75042507D01*
X94262120Y-75080455D01*
X94270711Y-75095069D01*
X94272520Y-75094296D01*
X94285823Y-75075727D01*
X94308844Y-75036401D01*
X94338928Y-74980994D01*
X94373422Y-74914180D01*
X94394687Y-74872258D01*
X94433230Y-74798562D01*
X94463170Y-74746617D01*
X94487422Y-74712697D01*
X94508898Y-74693079D01*
X94530512Y-74684040D01*
X94555177Y-74681854D01*
X94569160Y-74682487D01*
X94590616Y-74688088D01*
X94611005Y-74702552D01*
X94633103Y-74729542D01*
X94659689Y-74772725D01*
X94693540Y-74835765D01*
X94737434Y-74922328D01*
X94750392Y-74947963D01*
X94782954Y-75010096D01*
X94809895Y-75058241D01*
X94828710Y-75088049D01*
X94836897Y-75095168D01*
X94838717Y-75090813D01*
X94851198Y-75062975D01*
X94873646Y-75013796D01*
X94904156Y-74947426D01*
X94940823Y-74868014D01*
X94981742Y-74779707D01*
X95017309Y-74703525D01*
X95056749Y-74620995D01*
X95087465Y-74560100D01*
X95111401Y-74517442D01*
X95130502Y-74489625D01*
X95146713Y-74473253D01*
X95161978Y-74464931D01*
X95174506Y-74461080D01*
X95207930Y-74460882D01*
X95244067Y-74481308D01*
X95245798Y-74482620D01*
X95275200Y-74512756D01*
X95289909Y-74542345D01*
X95289971Y-74543197D01*
X95283926Y-74566711D01*
X95266799Y-74612731D01*
X95240493Y-74677096D01*
X95206910Y-74755645D01*
X95167952Y-74844221D01*
X95125522Y-74938661D01*
X95081522Y-75034807D01*
X95037854Y-75128499D01*
X94996420Y-75215576D01*
X94959123Y-75291880D01*
X94927864Y-75353249D01*
X94904546Y-75395525D01*
X94891071Y-75414547D01*
X94845262Y-75432345D01*
X94789748Y-75423876D01*
X94782606Y-75417622D01*
X94761532Y-75388131D01*
X94731973Y-75339190D01*
X94696803Y-75275661D01*
X94658894Y-75202407D01*
X94552686Y-74990397D01*
X94455248Y-75185563D01*
X94442340Y-75211246D01*
X94406421Y-75280940D01*
X94374431Y-75340571D01*
X94349449Y-75384486D01*
X94334556Y-75407032D01*
X94333030Y-75408687D01*
X94295591Y-75429039D01*
X94248911Y-75431280D01*
X94207584Y-75414547D01*
X94204354Y-75410754D01*
X94188031Y-75383294D01*
X94161754Y-75333300D01*
X94127266Y-75264298D01*
X94086310Y-75179814D01*
X94040630Y-75083373D01*
X93991969Y-74978503D01*
X93965022Y-74919759D01*
X93916064Y-74812281D01*
X93878178Y-74727502D01*
X93850187Y-74662353D01*
X93830912Y-74613764D01*
X93819178Y-74578667D01*
X93813805Y-74553992D01*
X93813616Y-74536672D01*
X93817434Y-74523636D01*
X93836948Y-74495834D01*
X93872366Y-74468806D01*
X93873372Y-74468350D01*
X93899453Y-74459030D01*
X93922692Y-74458324D01*
X93945208Y-74468940D01*
G36*
X92435531Y-74456412D02*
G01*
X92560843Y-74456532D01*
X92660048Y-74456984D01*
X92736478Y-74457972D01*
X92793459Y-74459697D01*
X92834323Y-74462361D01*
X92862397Y-74466169D01*
X92881012Y-74471321D01*
X92893496Y-74478020D01*
X92903179Y-74486470D01*
X92928216Y-74530029D01*
X92930142Y-74580057D01*
X92908364Y-74624310D01*
X92906553Y-74626245D01*
X92891638Y-74637376D01*
X92868868Y-74644771D01*
X92832696Y-74649157D01*
X92777573Y-74651256D01*
X92697950Y-74651795D01*
X92512409Y-74651795D01*
X92512409Y-75002963D01*
X92512309Y-75103918D01*
X92511766Y-75192674D01*
X92510458Y-75258955D01*
X92508067Y-75306773D01*
X92504271Y-75340146D01*
X92498752Y-75363086D01*
X92491188Y-75379610D01*
X92481259Y-75393733D01*
X92478210Y-75397469D01*
X92436700Y-75427614D01*
X92390929Y-75429696D01*
X92347084Y-75403274D01*
X92337793Y-75392523D01*
X92330508Y-75378412D01*
X92325156Y-75357319D01*
X92321440Y-75325398D01*
X92319064Y-75278802D01*
X92317734Y-75213685D01*
X92317153Y-75126201D01*
X92317025Y-75012505D01*
X92317025Y-74651795D01*
X92122731Y-74651795D01*
X92107953Y-74651794D01*
X92032708Y-74651494D01*
X91980992Y-74649977D01*
X91947185Y-74646250D01*
X91925668Y-74639318D01*
X91910821Y-74628186D01*
X91897024Y-74611860D01*
X91875926Y-74571003D01*
X91880056Y-74526029D01*
X91914197Y-74482712D01*
X91920775Y-74477763D01*
X91934369Y-74471325D01*
X91954906Y-74466314D01*
X91985689Y-74462557D01*
X92030020Y-74459876D01*
X92091201Y-74458096D01*
X92172535Y-74457043D01*
X92277323Y-74456539D01*
X92408867Y-74456410D01*
X92435531Y-74456412D01*
G37*
X92435531Y-74456412D02*
X92560843Y-74456532D01*
X92660048Y-74456984D01*
X92736478Y-74457972D01*
X92793459Y-74459697D01*
X92834323Y-74462361D01*
X92862397Y-74466169D01*
X92881012Y-74471321D01*
X92893496Y-74478020D01*
X92903179Y-74486470D01*
X92928216Y-74530029D01*
X92930142Y-74580057D01*
X92908364Y-74624310D01*
X92906553Y-74626245D01*
X92891638Y-74637376D01*
X92868868Y-74644771D01*
X92832696Y-74649157D01*
X92777573Y-74651256D01*
X92697950Y-74651795D01*
X92512409Y-74651795D01*
X92512409Y-75002963D01*
X92512309Y-75103918D01*
X92511766Y-75192674D01*
X92510458Y-75258955D01*
X92508067Y-75306773D01*
X92504271Y-75340146D01*
X92498752Y-75363086D01*
X92491188Y-75379610D01*
X92481259Y-75393733D01*
X92478210Y-75397469D01*
X92436700Y-75427614D01*
X92390929Y-75429696D01*
X92347084Y-75403274D01*
X92337793Y-75392523D01*
X92330508Y-75378412D01*
X92325156Y-75357319D01*
X92321440Y-75325398D01*
X92319064Y-75278802D01*
X92317734Y-75213685D01*
X92317153Y-75126201D01*
X92317025Y-75012505D01*
X92317025Y-74651795D01*
X92122731Y-74651795D01*
X92107953Y-74651794D01*
X92032708Y-74651494D01*
X91980992Y-74649977D01*
X91947185Y-74646250D01*
X91925668Y-74639318D01*
X91910821Y-74628186D01*
X91897024Y-74611860D01*
X91875926Y-74571003D01*
X91880056Y-74526029D01*
X91914197Y-74482712D01*
X91920775Y-74477763D01*
X91934369Y-74471325D01*
X91954906Y-74466314D01*
X91985689Y-74462557D01*
X92030020Y-74459876D01*
X92091201Y-74458096D01*
X92172535Y-74457043D01*
X92277323Y-74456539D01*
X92408867Y-74456410D01*
X92435531Y-74456412D01*
G36*
X101719621Y-74463217D02*
G01*
X101860754Y-74484938D01*
X101985652Y-74522285D01*
X102090557Y-74574083D01*
X102171709Y-74639162D01*
X102206418Y-74682913D01*
X102245703Y-74748414D01*
X102279349Y-74820119D01*
X102302847Y-74888241D01*
X102311688Y-74942993D01*
X102309611Y-74969241D01*
X102292381Y-75037583D01*
X102261543Y-75112840D01*
X102221746Y-75184622D01*
X102177640Y-75242542D01*
X102164065Y-75256319D01*
X102074750Y-75325250D01*
X101968074Y-75378362D01*
X101853297Y-75410849D01*
X101780120Y-75421649D01*
X101655700Y-75430442D01*
X101536170Y-75427663D01*
X101426346Y-75414023D01*
X101331044Y-75390232D01*
X101255079Y-75356998D01*
X101203267Y-75315033D01*
X101201436Y-75312403D01*
X101192000Y-75278818D01*
X101186356Y-75215910D01*
X101184480Y-75123428D01*
X101185625Y-75040574D01*
X101191909Y-74977491D01*
X101207472Y-74934750D01*
X101236455Y-74908719D01*
X101282998Y-74895764D01*
X101351241Y-74892253D01*
X101445324Y-74894554D01*
X101510055Y-74898564D01*
X101576884Y-74909471D01*
X101620145Y-74928181D01*
X101643389Y-74956453D01*
X101650167Y-74996048D01*
X101650026Y-75002094D01*
X101638440Y-75048417D01*
X101606475Y-75079594D01*
X101551536Y-75097168D01*
X101471031Y-75102683D01*
X101379865Y-75102683D01*
X101379865Y-75153743D01*
X101379932Y-75165906D01*
X101382888Y-75188873D01*
X101395226Y-75202578D01*
X101423692Y-75211814D01*
X101475031Y-75221376D01*
X101482319Y-75222620D01*
X101611395Y-75235805D01*
X101731206Y-75231918D01*
X101838924Y-75212307D01*
X101931718Y-75178317D01*
X102006760Y-75131293D01*
X102061220Y-75072581D01*
X102092270Y-75003527D01*
X102097079Y-74925478D01*
X102089732Y-74887008D01*
X102054207Y-74812599D01*
X101992713Y-74751810D01*
X101906199Y-74705431D01*
X101795614Y-74674252D01*
X101762763Y-74668329D01*
X101643834Y-74654351D01*
X101537582Y-74655987D01*
X101433613Y-74673209D01*
X101386824Y-74682248D01*
X101326330Y-74683603D01*
X101284639Y-74666919D01*
X101257807Y-74631256D01*
X101249308Y-74593649D01*
X101261938Y-74552078D01*
X101274358Y-74534204D01*
X101319936Y-74502875D01*
X101389995Y-74479082D01*
X101481216Y-74463776D01*
X101590279Y-74457909D01*
X101719621Y-74463217D01*
G37*
X101719621Y-74463217D02*
X101860754Y-74484938D01*
X101985652Y-74522285D01*
X102090557Y-74574083D01*
X102171709Y-74639162D01*
X102206418Y-74682913D01*
X102245703Y-74748414D01*
X102279349Y-74820119D01*
X102302847Y-74888241D01*
X102311688Y-74942993D01*
X102309611Y-74969241D01*
X102292381Y-75037583D01*
X102261543Y-75112840D01*
X102221746Y-75184622D01*
X102177640Y-75242542D01*
X102164065Y-75256319D01*
X102074750Y-75325250D01*
X101968074Y-75378362D01*
X101853297Y-75410849D01*
X101780120Y-75421649D01*
X101655700Y-75430442D01*
X101536170Y-75427663D01*
X101426346Y-75414023D01*
X101331044Y-75390232D01*
X101255079Y-75356998D01*
X101203267Y-75315033D01*
X101201436Y-75312403D01*
X101192000Y-75278818D01*
X101186356Y-75215910D01*
X101184480Y-75123428D01*
X101185625Y-75040574D01*
X101191909Y-74977491D01*
X101207472Y-74934750D01*
X101236455Y-74908719D01*
X101282998Y-74895764D01*
X101351241Y-74892253D01*
X101445324Y-74894554D01*
X101510055Y-74898564D01*
X101576884Y-74909471D01*
X101620145Y-74928181D01*
X101643389Y-74956453D01*
X101650167Y-74996048D01*
X101650026Y-75002094D01*
X101638440Y-75048417D01*
X101606475Y-75079594D01*
X101551536Y-75097168D01*
X101471031Y-75102683D01*
X101379865Y-75102683D01*
X101379865Y-75153743D01*
X101379932Y-75165906D01*
X101382888Y-75188873D01*
X101395226Y-75202578D01*
X101423692Y-75211814D01*
X101475031Y-75221376D01*
X101482319Y-75222620D01*
X101611395Y-75235805D01*
X101731206Y-75231918D01*
X101838924Y-75212307D01*
X101931718Y-75178317D01*
X102006760Y-75131293D01*
X102061220Y-75072581D01*
X102092270Y-75003527D01*
X102097079Y-74925478D01*
X102089732Y-74887008D01*
X102054207Y-74812599D01*
X101992713Y-74751810D01*
X101906199Y-74705431D01*
X101795614Y-74674252D01*
X101762763Y-74668329D01*
X101643834Y-74654351D01*
X101537582Y-74655987D01*
X101433613Y-74673209D01*
X101386824Y-74682248D01*
X101326330Y-74683603D01*
X101284639Y-74666919D01*
X101257807Y-74631256D01*
X101249308Y-74593649D01*
X101261938Y-74552078D01*
X101274358Y-74534204D01*
X101319936Y-74502875D01*
X101389995Y-74479082D01*
X101481216Y-74463776D01*
X101590279Y-74457909D01*
X101719621Y-74463217D01*
G36*
X103998515Y-74457568D02*
G01*
X104086713Y-74464797D01*
X104160338Y-74477576D01*
X104228081Y-74497361D01*
X104323024Y-74541472D01*
X104391132Y-74598298D01*
X104432169Y-74667615D01*
X104445901Y-74749199D01*
X104444653Y-74790802D01*
X104436941Y-74823816D01*
X104417227Y-74852666D01*
X104379986Y-74889080D01*
X104369364Y-74898837D01*
X104337798Y-74926666D01*
X104307984Y-74949260D01*
X104275986Y-74967837D01*
X104237872Y-74983615D01*
X104189708Y-74997812D01*
X104127560Y-75011647D01*
X104047494Y-75026338D01*
X103945576Y-75043103D01*
X103817874Y-75063161D01*
X103793425Y-75067200D01*
X103710442Y-75085334D01*
X103650241Y-75106281D01*
X103615247Y-75129009D01*
X103607886Y-75152487D01*
X103611375Y-75158172D01*
X103635250Y-75178229D01*
X103672695Y-75200375D01*
X103689736Y-75208351D01*
X103718092Y-75217927D01*
X103753221Y-75224287D01*
X103800943Y-75228040D01*
X103867076Y-75229794D01*
X103957439Y-75230158D01*
X103981117Y-75230061D01*
X104071145Y-75228582D01*
X104157602Y-75225619D01*
X104231659Y-75221537D01*
X104284489Y-75216698D01*
X104331767Y-75211282D01*
X104370712Y-75210240D01*
X104395876Y-75216363D01*
X104415998Y-75230576D01*
X104420866Y-75235359D01*
X104442623Y-75277662D01*
X104440865Y-75325130D01*
X104415627Y-75365895D01*
X104388506Y-75381346D01*
X104340599Y-75398248D01*
X104284118Y-75411628D01*
X104279524Y-75412425D01*
X104222716Y-75419370D01*
X104146313Y-75425193D01*
X104059752Y-75429304D01*
X103972469Y-75431113D01*
X103950857Y-75431169D01*
X103819968Y-75427870D01*
X103713390Y-75417211D01*
X103626612Y-75397864D01*
X103555124Y-75368502D01*
X103494413Y-75327798D01*
X103439969Y-75274424D01*
X103413181Y-75239507D01*
X103397702Y-75200169D01*
X103393830Y-75147292D01*
X103394017Y-75131357D01*
X103399173Y-75087846D01*
X103415662Y-75052531D01*
X103449165Y-75011460D01*
X103477406Y-74981984D01*
X103512549Y-74951967D01*
X103552113Y-74927513D01*
X103600347Y-74907202D01*
X103661500Y-74889612D01*
X103739819Y-74873323D01*
X103839554Y-74856913D01*
X103964954Y-74838962D01*
X104025280Y-74829630D01*
X104115752Y-74810246D01*
X104181169Y-74788280D01*
X104220534Y-74764451D01*
X104232850Y-74739482D01*
X104217118Y-74714093D01*
X104172342Y-74689005D01*
X104168287Y-74687389D01*
X104106566Y-74671309D01*
X104023156Y-74660391D01*
X103925389Y-74654852D01*
X103820598Y-74654909D01*
X103716115Y-74660778D01*
X103619273Y-74672675D01*
X103614045Y-74673539D01*
X103549053Y-74683800D01*
X103506114Y-74688608D01*
X103478159Y-74687813D01*
X103458117Y-74681261D01*
X103438918Y-74668801D01*
X103437361Y-74667642D01*
X103404720Y-74627204D01*
X103398338Y-74579939D01*
X103419383Y-74533899D01*
X103425435Y-74527966D01*
X103464862Y-74507810D01*
X103527412Y-74490338D01*
X103607698Y-74475959D01*
X103700337Y-74465084D01*
X103799942Y-74458121D01*
X103901130Y-74455479D01*
X103998515Y-74457568D01*
G37*
X103998515Y-74457568D02*
X104086713Y-74464797D01*
X104160338Y-74477576D01*
X104228081Y-74497361D01*
X104323024Y-74541472D01*
X104391132Y-74598298D01*
X104432169Y-74667615D01*
X104445901Y-74749199D01*
X104444653Y-74790802D01*
X104436941Y-74823816D01*
X104417227Y-74852666D01*
X104379986Y-74889080D01*
X104369364Y-74898837D01*
X104337798Y-74926666D01*
X104307984Y-74949260D01*
X104275986Y-74967837D01*
X104237872Y-74983615D01*
X104189708Y-74997812D01*
X104127560Y-75011647D01*
X104047494Y-75026338D01*
X103945576Y-75043103D01*
X103817874Y-75063161D01*
X103793425Y-75067200D01*
X103710442Y-75085334D01*
X103650241Y-75106281D01*
X103615247Y-75129009D01*
X103607886Y-75152487D01*
X103611375Y-75158172D01*
X103635250Y-75178229D01*
X103672695Y-75200375D01*
X103689736Y-75208351D01*
X103718092Y-75217927D01*
X103753221Y-75224287D01*
X103800943Y-75228040D01*
X103867076Y-75229794D01*
X103957439Y-75230158D01*
X103981117Y-75230061D01*
X104071145Y-75228582D01*
X104157602Y-75225619D01*
X104231659Y-75221537D01*
X104284489Y-75216698D01*
X104331767Y-75211282D01*
X104370712Y-75210240D01*
X104395876Y-75216363D01*
X104415998Y-75230576D01*
X104420866Y-75235359D01*
X104442623Y-75277662D01*
X104440865Y-75325130D01*
X104415627Y-75365895D01*
X104388506Y-75381346D01*
X104340599Y-75398248D01*
X104284118Y-75411628D01*
X104279524Y-75412425D01*
X104222716Y-75419370D01*
X104146313Y-75425193D01*
X104059752Y-75429304D01*
X103972469Y-75431113D01*
X103950857Y-75431169D01*
X103819968Y-75427870D01*
X103713390Y-75417211D01*
X103626612Y-75397864D01*
X103555124Y-75368502D01*
X103494413Y-75327798D01*
X103439969Y-75274424D01*
X103413181Y-75239507D01*
X103397702Y-75200169D01*
X103393830Y-75147292D01*
X103394017Y-75131357D01*
X103399173Y-75087846D01*
X103415662Y-75052531D01*
X103449165Y-75011460D01*
X103477406Y-74981984D01*
X103512549Y-74951967D01*
X103552113Y-74927513D01*
X103600347Y-74907202D01*
X103661500Y-74889612D01*
X103739819Y-74873323D01*
X103839554Y-74856913D01*
X103964954Y-74838962D01*
X104025280Y-74829630D01*
X104115752Y-74810246D01*
X104181169Y-74788280D01*
X104220534Y-74764451D01*
X104232850Y-74739482D01*
X104217118Y-74714093D01*
X104172342Y-74689005D01*
X104168287Y-74687389D01*
X104106566Y-74671309D01*
X104023156Y-74660391D01*
X103925389Y-74654852D01*
X103820598Y-74654909D01*
X103716115Y-74660778D01*
X103619273Y-74672675D01*
X103614045Y-74673539D01*
X103549053Y-74683800D01*
X103506114Y-74688608D01*
X103478159Y-74687813D01*
X103458117Y-74681261D01*
X103438918Y-74668801D01*
X103437361Y-74667642D01*
X103404720Y-74627204D01*
X103398338Y-74579939D01*
X103419383Y-74533899D01*
X103425435Y-74527966D01*
X103464862Y-74507810D01*
X103527412Y-74490338D01*
X103607698Y-74475959D01*
X103700337Y-74465084D01*
X103799942Y-74458121D01*
X103901130Y-74455479D01*
X103998515Y-74457568D01*
G36*
X102946337Y-65920839D02*
G01*
X103085779Y-65955005D01*
X103217955Y-66016325D01*
X103338699Y-66104810D01*
X103443846Y-66220470D01*
X103529230Y-66363313D01*
X103552121Y-66413633D01*
X103570666Y-66464636D01*
X103581072Y-66515624D01*
X103585633Y-66578691D01*
X103586643Y-66665929D01*
X103586032Y-66738539D01*
X103582350Y-66805270D01*
X103573322Y-66857334D01*
X103556694Y-66906686D01*
X103530212Y-66965286D01*
X103522552Y-66980902D01*
X103432006Y-67123893D01*
X103318125Y-67241543D01*
X103184141Y-67331089D01*
X103033286Y-67389772D01*
X102955881Y-67406147D01*
X102798849Y-67413810D01*
X102646753Y-67389016D01*
X102504054Y-67334306D01*
X102375212Y-67252223D01*
X102264686Y-67145309D01*
X102176936Y-67016107D01*
X102116423Y-66867158D01*
X102094283Y-66745265D01*
X102092288Y-66610751D01*
X102110295Y-66479908D01*
X102147446Y-66366572D01*
X102190372Y-66285543D01*
X102285933Y-66156987D01*
X102399221Y-66055527D01*
X102526071Y-65981172D01*
X102662318Y-65933933D01*
X102803795Y-65913818D01*
X102946337Y-65920839D01*
G37*
X102946337Y-65920839D02*
X103085779Y-65955005D01*
X103217955Y-66016325D01*
X103338699Y-66104810D01*
X103443846Y-66220470D01*
X103529230Y-66363313D01*
X103552121Y-66413633D01*
X103570666Y-66464636D01*
X103581072Y-66515624D01*
X103585633Y-66578691D01*
X103586643Y-66665929D01*
X103586032Y-66738539D01*
X103582350Y-66805270D01*
X103573322Y-66857334D01*
X103556694Y-66906686D01*
X103530212Y-66965286D01*
X103522552Y-66980902D01*
X103432006Y-67123893D01*
X103318125Y-67241543D01*
X103184141Y-67331089D01*
X103033286Y-67389772D01*
X102955881Y-67406147D01*
X102798849Y-67413810D01*
X102646753Y-67389016D01*
X102504054Y-67334306D01*
X102375212Y-67252223D01*
X102264686Y-67145309D01*
X102176936Y-67016107D01*
X102116423Y-66867158D01*
X102094283Y-66745265D01*
X102092288Y-66610751D01*
X102110295Y-66479908D01*
X102147446Y-66366572D01*
X102190372Y-66285543D01*
X102285933Y-66156987D01*
X102399221Y-66055527D01*
X102526071Y-65981172D01*
X102662318Y-65933933D01*
X102803795Y-65913818D01*
X102946337Y-65920839D01*
G36*
X91535486Y-74486470D02*
G01*
X91542985Y-74494711D01*
X91549762Y-74505636D01*
X91555202Y-74521315D01*
X91559434Y-74544559D01*
X91562584Y-74578181D01*
X91564782Y-74624992D01*
X91566155Y-74687803D01*
X91566832Y-74769427D01*
X91566940Y-74872674D01*
X91566608Y-75000357D01*
X91565964Y-75155286D01*
X91565872Y-75174158D01*
X91565092Y-75256386D01*
X91563331Y-75314544D01*
X91559942Y-75353660D01*
X91554277Y-75378761D01*
X91545688Y-75394876D01*
X91533527Y-75407032D01*
X91488983Y-75430220D01*
X91442454Y-75426357D01*
X91401311Y-75393733D01*
X91389316Y-75376155D01*
X91379396Y-75351477D01*
X91373581Y-75316824D01*
X91370845Y-75265505D01*
X91370161Y-75190833D01*
X91370161Y-75027535D01*
X90708859Y-75027535D01*
X90708859Y-75207038D01*
X90708762Y-75254688D01*
X90707747Y-75316370D01*
X90704849Y-75357022D01*
X90699128Y-75382358D01*
X90689644Y-75398092D01*
X90675456Y-75409937D01*
X90632518Y-75430000D01*
X90585539Y-75426449D01*
X90544625Y-75393733D01*
X90538426Y-75385405D01*
X90530524Y-75371394D01*
X90524491Y-75352848D01*
X90520077Y-75326123D01*
X90517029Y-75287570D01*
X90515097Y-75233544D01*
X90514028Y-75160398D01*
X90513571Y-75064486D01*
X90513475Y-74942162D01*
X90513475Y-74530192D01*
X90550365Y-74493301D01*
X90592141Y-74463688D01*
X90636381Y-74460107D01*
X90678800Y-74486470D01*
X90689831Y-74499478D01*
X90699699Y-74520636D01*
X90705474Y-74552545D01*
X90708184Y-74601636D01*
X90708859Y-74674339D01*
X90708859Y-74832150D01*
X91370161Y-74832150D01*
X91370161Y-74678360D01*
X91370744Y-74609533D01*
X91373359Y-74563568D01*
X91379371Y-74533511D01*
X91390147Y-74512407D01*
X91407052Y-74493301D01*
X91448828Y-74463688D01*
X91493067Y-74460107D01*
X91535486Y-74486470D01*
G37*
X91535486Y-74486470D02*
X91542985Y-74494711D01*
X91549762Y-74505636D01*
X91555202Y-74521315D01*
X91559434Y-74544559D01*
X91562584Y-74578181D01*
X91564782Y-74624992D01*
X91566155Y-74687803D01*
X91566832Y-74769427D01*
X91566940Y-74872674D01*
X91566608Y-75000357D01*
X91565964Y-75155286D01*
X91565872Y-75174158D01*
X91565092Y-75256386D01*
X91563331Y-75314544D01*
X91559942Y-75353660D01*
X91554277Y-75378761D01*
X91545688Y-75394876D01*
X91533527Y-75407032D01*
X91488983Y-75430220D01*
X91442454Y-75426357D01*
X91401311Y-75393733D01*
X91389316Y-75376155D01*
X91379396Y-75351477D01*
X91373581Y-75316824D01*
X91370845Y-75265505D01*
X91370161Y-75190833D01*
X91370161Y-75027535D01*
X90708859Y-75027535D01*
X90708859Y-75207038D01*
X90708762Y-75254688D01*
X90707747Y-75316370D01*
X90704849Y-75357022D01*
X90699128Y-75382358D01*
X90689644Y-75398092D01*
X90675456Y-75409937D01*
X90632518Y-75430000D01*
X90585539Y-75426449D01*
X90544625Y-75393733D01*
X90538426Y-75385405D01*
X90530524Y-75371394D01*
X90524491Y-75352848D01*
X90520077Y-75326123D01*
X90517029Y-75287570D01*
X90515097Y-75233544D01*
X90514028Y-75160398D01*
X90513571Y-75064486D01*
X90513475Y-74942162D01*
X90513475Y-74530192D01*
X90550365Y-74493301D01*
X90592141Y-74463688D01*
X90636381Y-74460107D01*
X90678800Y-74486470D01*
X90689831Y-74499478D01*
X90699699Y-74520636D01*
X90705474Y-74552545D01*
X90708184Y-74601636D01*
X90708859Y-74674339D01*
X90708859Y-74832150D01*
X91370161Y-74832150D01*
X91370161Y-74678360D01*
X91370744Y-74609533D01*
X91373359Y-74563568D01*
X91379371Y-74533511D01*
X91390147Y-74512407D01*
X91407052Y-74493301D01*
X91448828Y-74463688D01*
X91493067Y-74460107D01*
X91535486Y-74486470D01*
G36*
X105351020Y-74456432D02*
G01*
X105453663Y-74456688D01*
X105532142Y-74457466D01*
X105590172Y-74459052D01*
X105631469Y-74461732D01*
X105659750Y-74465790D01*
X105678732Y-74471512D01*
X105692129Y-74479183D01*
X105703660Y-74489090D01*
X105706036Y-74491327D01*
X105715680Y-74501364D01*
X105723191Y-74513370D01*
X105728837Y-74530857D01*
X105732883Y-74557334D01*
X105735596Y-74596315D01*
X105737242Y-74651310D01*
X105738088Y-74725830D01*
X105738400Y-74823387D01*
X105738445Y-74947492D01*
X105738396Y-75044401D01*
X105738065Y-75148481D01*
X105737218Y-75228648D01*
X105735624Y-75288398D01*
X105733053Y-75331228D01*
X105729275Y-75360634D01*
X105724058Y-75380112D01*
X105717171Y-75393160D01*
X105708386Y-75403274D01*
X105703947Y-75407504D01*
X105692601Y-75415640D01*
X105676622Y-75421863D01*
X105652377Y-75426430D01*
X105616235Y-75429595D01*
X105564563Y-75431613D01*
X105493728Y-75432739D01*
X105400098Y-75433227D01*
X105280043Y-75433334D01*
X105223981Y-75433318D01*
X105115945Y-75433075D01*
X105032745Y-75432339D01*
X104970749Y-75430854D01*
X104926325Y-75428365D01*
X104895840Y-75424618D01*
X104875662Y-75419357D01*
X104862159Y-75412327D01*
X104851699Y-75403274D01*
X104832093Y-75374518D01*
X104821640Y-75335641D01*
X104828961Y-75303813D01*
X104851699Y-75268008D01*
X104858328Y-75261873D01*
X104871342Y-75253503D01*
X104890135Y-75247345D01*
X104918753Y-75243063D01*
X104961243Y-75240320D01*
X105021651Y-75238778D01*
X105104024Y-75238100D01*
X105212409Y-75237949D01*
X105543060Y-75237949D01*
X105543060Y-75027535D01*
X105328475Y-75027535D01*
X105280789Y-75027341D01*
X105193420Y-75025048D01*
X105130525Y-75019143D01*
X105088274Y-75008353D01*
X105062837Y-74991404D01*
X105050384Y-74967021D01*
X105047084Y-74933931D01*
X105048146Y-74906963D01*
X105055138Y-74877905D01*
X105072171Y-74857467D01*
X105103245Y-74844159D01*
X105152357Y-74836496D01*
X105223508Y-74832989D01*
X105320696Y-74832150D01*
X105544560Y-74832150D01*
X105535546Y-74659310D01*
X105205745Y-74655251D01*
X105122414Y-74654081D01*
X105031268Y-74652158D01*
X104963496Y-74649588D01*
X104915230Y-74646059D01*
X104882602Y-74641261D01*
X104861746Y-74634885D01*
X104848793Y-74626620D01*
X104840784Y-74618095D01*
X104823465Y-74575916D01*
X104828205Y-74528404D01*
X104854533Y-74487055D01*
X104858863Y-74483163D01*
X104870818Y-74474707D01*
X104886932Y-74468247D01*
X104910905Y-74463515D01*
X104946437Y-74460244D01*
X104997227Y-74458165D01*
X105066976Y-74457012D01*
X105159384Y-74456516D01*
X105278150Y-74456410D01*
X105351020Y-74456432D01*
G37*
X105351020Y-74456432D02*
X105453663Y-74456688D01*
X105532142Y-74457466D01*
X105590172Y-74459052D01*
X105631469Y-74461732D01*
X105659750Y-74465790D01*
X105678732Y-74471512D01*
X105692129Y-74479183D01*
X105703660Y-74489090D01*
X105706036Y-74491327D01*
X105715680Y-74501364D01*
X105723191Y-74513370D01*
X105728837Y-74530857D01*
X105732883Y-74557334D01*
X105735596Y-74596315D01*
X105737242Y-74651310D01*
X105738088Y-74725830D01*
X105738400Y-74823387D01*
X105738445Y-74947492D01*
X105738396Y-75044401D01*
X105738065Y-75148481D01*
X105737218Y-75228648D01*
X105735624Y-75288398D01*
X105733053Y-75331228D01*
X105729275Y-75360634D01*
X105724058Y-75380112D01*
X105717171Y-75393160D01*
X105708386Y-75403274D01*
X105703947Y-75407504D01*
X105692601Y-75415640D01*
X105676622Y-75421863D01*
X105652377Y-75426430D01*
X105616235Y-75429595D01*
X105564563Y-75431613D01*
X105493728Y-75432739D01*
X105400098Y-75433227D01*
X105280043Y-75433334D01*
X105223981Y-75433318D01*
X105115945Y-75433075D01*
X105032745Y-75432339D01*
X104970749Y-75430854D01*
X104926325Y-75428365D01*
X104895840Y-75424618D01*
X104875662Y-75419357D01*
X104862159Y-75412327D01*
X104851699Y-75403274D01*
X104832093Y-75374518D01*
X104821640Y-75335641D01*
X104828961Y-75303813D01*
X104851699Y-75268008D01*
X104858328Y-75261873D01*
X104871342Y-75253503D01*
X104890135Y-75247345D01*
X104918753Y-75243063D01*
X104961243Y-75240320D01*
X105021651Y-75238778D01*
X105104024Y-75238100D01*
X105212409Y-75237949D01*
X105543060Y-75237949D01*
X105543060Y-75027535D01*
X105328475Y-75027535D01*
X105280789Y-75027341D01*
X105193420Y-75025048D01*
X105130525Y-75019143D01*
X105088274Y-75008353D01*
X105062837Y-74991404D01*
X105050384Y-74967021D01*
X105047084Y-74933931D01*
X105048146Y-74906963D01*
X105055138Y-74877905D01*
X105072171Y-74857467D01*
X105103245Y-74844159D01*
X105152357Y-74836496D01*
X105223508Y-74832989D01*
X105320696Y-74832150D01*
X105544560Y-74832150D01*
X105535546Y-74659310D01*
X105205745Y-74655251D01*
X105122414Y-74654081D01*
X105031268Y-74652158D01*
X104963496Y-74649588D01*
X104915230Y-74646059D01*
X104882602Y-74641261D01*
X104861746Y-74634885D01*
X104848793Y-74626620D01*
X104840784Y-74618095D01*
X104823465Y-74575916D01*
X104828205Y-74528404D01*
X104854533Y-74487055D01*
X104858863Y-74483163D01*
X104870818Y-74474707D01*
X104886932Y-74468247D01*
X104910905Y-74463515D01*
X104946437Y-74460244D01*
X104997227Y-74458165D01*
X105066976Y-74457012D01*
X105159384Y-74456516D01*
X105278150Y-74456410D01*
X105351020Y-74456432D01*
G36*
X109177560Y-73201553D02*
G01*
X109175241Y-73322746D01*
X109172425Y-73425940D01*
X109169064Y-73512635D01*
X109165110Y-73584332D01*
X109160517Y-73642530D01*
X109155238Y-73688730D01*
X109149225Y-73724433D01*
X109142430Y-73751137D01*
X109134808Y-73770345D01*
X109126309Y-73783555D01*
X109116889Y-73792268D01*
X109106498Y-73797985D01*
X109095090Y-73802206D01*
X109082618Y-73806430D01*
X109069034Y-73812159D01*
X109061391Y-73815030D01*
X109047371Y-73818165D01*
X109026538Y-73821037D01*
X108997421Y-73823659D01*
X108958544Y-73826040D01*
X108908434Y-73828194D01*
X108845617Y-73830130D01*
X108768620Y-73831862D01*
X108675969Y-73833400D01*
X108566190Y-73834756D01*
X108437810Y-73835941D01*
X108289354Y-73836968D01*
X108119350Y-73837846D01*
X107926323Y-73838589D01*
X107708800Y-73839207D01*
X107465308Y-73839713D01*
X107194371Y-73840116D01*
X106894517Y-73840430D01*
X106564273Y-73840665D01*
X106202164Y-73840834D01*
X105806716Y-73840947D01*
X105376456Y-73841016D01*
X105240108Y-73841029D01*
X104819186Y-73841038D01*
X104432647Y-73840985D01*
X104079034Y-73840860D01*
X103756890Y-73840652D01*
X103464761Y-73840351D01*
X103201188Y-73839946D01*
X102964716Y-73839426D01*
X102753890Y-73838782D01*
X102567251Y-73838002D01*
X102403345Y-73837076D01*
X102260715Y-73835993D01*
X102137905Y-73834743D01*
X102033458Y-73833315D01*
X101945919Y-73831698D01*
X101873830Y-73829883D01*
X101815736Y-73827858D01*
X101770180Y-73825613D01*
X101735707Y-73823137D01*
X101710859Y-73820420D01*
X101694181Y-73817451D01*
X101684217Y-73814220D01*
X101681046Y-73812782D01*
X101668067Y-73808058D01*
X101656165Y-73804608D01*
X101645292Y-73800930D01*
X101635398Y-73795521D01*
X101626437Y-73786879D01*
X101618359Y-73773502D01*
X101611116Y-73753886D01*
X101604661Y-73726531D01*
X101598945Y-73689933D01*
X101593919Y-73642590D01*
X101589536Y-73583000D01*
X101585747Y-73509659D01*
X101582504Y-73421067D01*
X101579759Y-73315720D01*
X101577463Y-73192117D01*
X101575568Y-73048754D01*
X101574946Y-72982367D01*
X102053373Y-72982367D01*
X102053898Y-72988725D01*
X102063521Y-72993877D01*
X102085264Y-72997950D01*
X102122148Y-73001070D01*
X102177193Y-73003365D01*
X102253419Y-73004959D01*
X102353848Y-73005979D01*
X102481501Y-73006551D01*
X102639398Y-73006802D01*
X102830559Y-73006857D01*
X103631314Y-73006857D01*
X103563621Y-72884393D01*
X103495929Y-72761929D01*
X103495929Y-69205929D01*
X103563621Y-69083465D01*
X103631314Y-68961000D01*
X102199993Y-68961000D01*
X102194818Y-70843322D01*
X102189643Y-72725643D01*
X102138903Y-72834008D01*
X102112151Y-72887719D01*
X102081860Y-72941524D01*
X102058984Y-72974615D01*
X102058926Y-72974679D01*
X102053373Y-72982367D01*
X101574946Y-72982367D01*
X101574026Y-72884129D01*
X101572789Y-72696740D01*
X101571808Y-72485085D01*
X101571035Y-72247661D01*
X101570422Y-71982966D01*
X101569921Y-71689498D01*
X101569484Y-71365753D01*
X101569061Y-71010230D01*
X101568605Y-70621426D01*
X101568068Y-70197840D01*
X101567999Y-70146560D01*
X101567400Y-69725657D01*
X101566827Y-69339362D01*
X101566323Y-68986172D01*
X101565930Y-68664584D01*
X101565690Y-68373094D01*
X101565646Y-68110200D01*
X101565840Y-67874398D01*
X101566314Y-67664186D01*
X101567112Y-67478060D01*
X101568274Y-67314517D01*
X101569844Y-67172055D01*
X101571864Y-67049170D01*
X101574377Y-66944359D01*
X101577424Y-66856119D01*
X101581049Y-66782947D01*
X101585293Y-66723340D01*
X101590198Y-66675795D01*
X101595808Y-66638808D01*
X101602165Y-66610878D01*
X101609311Y-66590500D01*
X101617288Y-66576171D01*
X101626139Y-66566390D01*
X101635906Y-66559651D01*
X101646632Y-66554454D01*
X101658358Y-66549293D01*
X101671128Y-66542667D01*
X101674865Y-66540556D01*
X101731405Y-66520118D01*
X101793300Y-66511717D01*
X101863072Y-66511720D01*
X101864234Y-66670467D01*
X101864529Y-66688735D01*
X101886706Y-66874427D01*
X101943188Y-67049147D01*
X102033192Y-67211043D01*
X102155932Y-67358265D01*
X102221798Y-67418311D01*
X102368454Y-67517838D01*
X102528470Y-67587242D01*
X102697185Y-67626487D01*
X102869939Y-67635537D01*
X103042072Y-67614353D01*
X103208922Y-67562899D01*
X103346080Y-67491429D01*
X103953127Y-67491429D01*
X104032957Y-67548862D01*
X104100470Y-67602841D01*
X104195603Y-67690886D01*
X104303507Y-67801230D01*
X104420097Y-67929670D01*
X104541285Y-68072000D01*
X104572494Y-68110062D01*
X104625629Y-68175343D01*
X104695083Y-68260988D01*
X104778556Y-68364140D01*
X104873746Y-68481939D01*
X104978354Y-68611528D01*
X105090077Y-68750047D01*
X105206615Y-68894639D01*
X105260067Y-68961000D01*
X105325667Y-69042444D01*
X105444932Y-69190603D01*
X105562109Y-69336260D01*
X105674896Y-69476554D01*
X105780994Y-69608627D01*
X105878101Y-69729621D01*
X105963916Y-69836678D01*
X106036138Y-69926938D01*
X106092466Y-69997543D01*
X106130599Y-70045635D01*
X106148237Y-70068355D01*
X106149692Y-70076893D01*
X106144850Y-70093132D01*
X106132302Y-70118679D01*
X106110797Y-70155347D01*
X106079080Y-70204949D01*
X106035900Y-70269295D01*
X105980005Y-70350198D01*
X105910141Y-70449471D01*
X105825057Y-70568926D01*
X105723499Y-70710374D01*
X105604216Y-70875629D01*
X105465954Y-71066501D01*
X105307462Y-71284804D01*
X105181177Y-71458571D01*
X105027105Y-71670407D01*
X104891580Y-71856440D01*
X104773024Y-72018734D01*
X104669861Y-72159354D01*
X104580515Y-72280365D01*
X104503411Y-72383832D01*
X104436972Y-72471818D01*
X104379623Y-72546390D01*
X104329786Y-72609610D01*
X104285886Y-72663545D01*
X104246347Y-72710258D01*
X104209593Y-72751814D01*
X104174047Y-72790279D01*
X104138135Y-72827715D01*
X104100278Y-72866189D01*
X103960771Y-73006857D01*
X105836357Y-73006933D01*
X105830464Y-72893275D01*
X105830179Y-72887564D01*
X105829060Y-72842127D01*
X105831181Y-72798593D01*
X105837958Y-72754576D01*
X105850812Y-72707693D01*
X105871160Y-72655558D01*
X105900420Y-72595786D01*
X105940012Y-72525994D01*
X105991353Y-72443797D01*
X106055862Y-72346809D01*
X106134957Y-72232647D01*
X106230057Y-72098925D01*
X106342581Y-71943260D01*
X106473946Y-71763265D01*
X106625572Y-71556557D01*
X107160786Y-70827911D01*
X107165501Y-71672755D01*
X107165919Y-71751562D01*
X107166656Y-71963832D01*
X107166321Y-72144381D01*
X107164519Y-72296628D01*
X107160856Y-72423988D01*
X107154936Y-72529878D01*
X107146367Y-72617715D01*
X107134751Y-72690916D01*
X107119697Y-72752898D01*
X107100807Y-72807076D01*
X107077689Y-72856869D01*
X107049947Y-72905693D01*
X107017187Y-72956964D01*
X106984256Y-73006857D01*
X108695704Y-73006857D01*
X108651496Y-72947893D01*
X108644572Y-72938565D01*
X108589221Y-72853070D01*
X108551064Y-72766644D01*
X108526008Y-72667613D01*
X108509959Y-72544304D01*
X108509518Y-72538929D01*
X108507189Y-72488067D01*
X108505087Y-72403206D01*
X108503219Y-72286286D01*
X108501596Y-72139246D01*
X108500227Y-71964026D01*
X108499120Y-71762563D01*
X108498285Y-71536798D01*
X108497732Y-71288669D01*
X108497468Y-71020115D01*
X108497503Y-70733077D01*
X108497847Y-70429492D01*
X108498508Y-70111300D01*
X108499209Y-69825881D01*
X108499958Y-69515196D01*
X108500696Y-69237226D01*
X108501515Y-68990022D01*
X108502507Y-68771637D01*
X108503766Y-68580125D01*
X108505383Y-68413537D01*
X108507452Y-68269925D01*
X108510065Y-68147344D01*
X108513315Y-68043844D01*
X108517293Y-67957479D01*
X108522094Y-67886301D01*
X108527809Y-67828363D01*
X108534532Y-67781717D01*
X108542354Y-67744416D01*
X108551368Y-67714512D01*
X108561667Y-67690058D01*
X108573344Y-67669106D01*
X108586492Y-67649709D01*
X108601202Y-67629920D01*
X108617567Y-67607791D01*
X108633396Y-67585615D01*
X108663991Y-67541769D01*
X108682317Y-67514107D01*
X108682759Y-67512949D01*
X108676360Y-67507718D01*
X108653779Y-67503353D01*
X108612502Y-67499788D01*
X108550017Y-67496954D01*
X108463812Y-67494787D01*
X108351373Y-67493217D01*
X108210188Y-67492179D01*
X108037745Y-67491605D01*
X107831530Y-67491429D01*
X106967060Y-67491429D01*
X107012621Y-67545574D01*
X107039026Y-67582763D01*
X107082978Y-67670446D01*
X107121495Y-67779499D01*
X107150893Y-67900468D01*
X107152766Y-67911952D01*
X107158341Y-67972492D01*
X107162563Y-68066056D01*
X107165443Y-68193292D01*
X107166992Y-68354846D01*
X107167221Y-68551368D01*
X107166143Y-68783504D01*
X107160786Y-69558508D01*
X106607429Y-68858742D01*
X106591579Y-68838698D01*
X106451253Y-68661052D01*
X106331453Y-68508914D01*
X106230270Y-68379698D01*
X106145800Y-68270817D01*
X106076135Y-68179685D01*
X106019368Y-68103714D01*
X105973594Y-68040317D01*
X105936906Y-67986908D01*
X105907396Y-67940901D01*
X105883159Y-67899707D01*
X105862288Y-67860741D01*
X105842877Y-67821415D01*
X105813015Y-67751805D01*
X105793724Y-67678372D01*
X105788592Y-67599165D01*
X105789108Y-67491429D01*
X103953127Y-67491429D01*
X103346080Y-67491429D01*
X103365830Y-67481138D01*
X103508136Y-67369032D01*
X103547695Y-67329510D01*
X103664620Y-67183175D01*
X103747588Y-67024367D01*
X103797043Y-66852063D01*
X103813429Y-66665238D01*
X103813429Y-66511715D01*
X106417830Y-66511714D01*
X106580540Y-66511707D01*
X106930089Y-66511660D01*
X107245856Y-66511626D01*
X107529588Y-66511673D01*
X107783031Y-66511872D01*
X108007931Y-66512291D01*
X108206034Y-66512998D01*
X108379087Y-66514065D01*
X108528835Y-66515558D01*
X108657025Y-66517547D01*
X108765403Y-66520102D01*
X108855715Y-66523291D01*
X108929707Y-66527183D01*
X108989125Y-66531848D01*
X109035716Y-66537354D01*
X109071226Y-66543771D01*
X109097400Y-66551167D01*
X109115986Y-66559611D01*
X109128728Y-66569173D01*
X109137374Y-66579922D01*
X109143670Y-66591926D01*
X109149360Y-66605255D01*
X109156193Y-66619978D01*
X109156316Y-66620218D01*
X109159633Y-66629856D01*
X109162676Y-66645993D01*
X109165456Y-66670121D01*
X109167985Y-66703727D01*
X109170274Y-66748301D01*
X109172334Y-66805333D01*
X109174179Y-66876311D01*
X109175817Y-66962725D01*
X109177263Y-67066064D01*
X109178526Y-67187818D01*
X109179619Y-67329475D01*
X109180553Y-67492526D01*
X109181340Y-67678458D01*
X109181991Y-67888762D01*
X109182517Y-68124927D01*
X109182931Y-68388442D01*
X109183244Y-68680797D01*
X109183467Y-69003480D01*
X109183612Y-69357981D01*
X109183691Y-69745789D01*
X109183714Y-70168393D01*
X109183715Y-70251414D01*
X109183755Y-70669614D01*
X109183817Y-71053313D01*
X109183854Y-71404009D01*
X109183817Y-71723204D01*
X109183662Y-72012398D01*
X109183339Y-72273091D01*
X109182801Y-72506784D01*
X109182001Y-72714976D01*
X109180892Y-72899168D01*
X109179916Y-73006857D01*
X109179428Y-73060860D01*
X109177560Y-73201553D01*
G37*
X109177560Y-73201553D02*
X109175241Y-73322746D01*
X109172425Y-73425940D01*
X109169064Y-73512635D01*
X109165110Y-73584332D01*
X109160517Y-73642530D01*
X109155238Y-73688730D01*
X109149225Y-73724433D01*
X109142430Y-73751137D01*
X109134808Y-73770345D01*
X109126309Y-73783555D01*
X109116889Y-73792268D01*
X109106498Y-73797985D01*
X109095090Y-73802206D01*
X109082618Y-73806430D01*
X109069034Y-73812159D01*
X109061391Y-73815030D01*
X109047371Y-73818165D01*
X109026538Y-73821037D01*
X108997421Y-73823659D01*
X108958544Y-73826040D01*
X108908434Y-73828194D01*
X108845617Y-73830130D01*
X108768620Y-73831862D01*
X108675969Y-73833400D01*
X108566190Y-73834756D01*
X108437810Y-73835941D01*
X108289354Y-73836968D01*
X108119350Y-73837846D01*
X107926323Y-73838589D01*
X107708800Y-73839207D01*
X107465308Y-73839713D01*
X107194371Y-73840116D01*
X106894517Y-73840430D01*
X106564273Y-73840665D01*
X106202164Y-73840834D01*
X105806716Y-73840947D01*
X105376456Y-73841016D01*
X105240108Y-73841029D01*
X104819186Y-73841038D01*
X104432647Y-73840985D01*
X104079034Y-73840860D01*
X103756890Y-73840652D01*
X103464761Y-73840351D01*
X103201188Y-73839946D01*
X102964716Y-73839426D01*
X102753890Y-73838782D01*
X102567251Y-73838002D01*
X102403345Y-73837076D01*
X102260715Y-73835993D01*
X102137905Y-73834743D01*
X102033458Y-73833315D01*
X101945919Y-73831698D01*
X101873830Y-73829883D01*
X101815736Y-73827858D01*
X101770180Y-73825613D01*
X101735707Y-73823137D01*
X101710859Y-73820420D01*
X101694181Y-73817451D01*
X101684217Y-73814220D01*
X101681046Y-73812782D01*
X101668067Y-73808058D01*
X101656165Y-73804608D01*
X101645292Y-73800930D01*
X101635398Y-73795521D01*
X101626437Y-73786879D01*
X101618359Y-73773502D01*
X101611116Y-73753886D01*
X101604661Y-73726531D01*
X101598945Y-73689933D01*
X101593919Y-73642590D01*
X101589536Y-73583000D01*
X101585747Y-73509659D01*
X101582504Y-73421067D01*
X101579759Y-73315720D01*
X101577463Y-73192117D01*
X101575568Y-73048754D01*
X101574946Y-72982367D01*
X102053373Y-72982367D01*
X102053898Y-72988725D01*
X102063521Y-72993877D01*
X102085264Y-72997950D01*
X102122148Y-73001070D01*
X102177193Y-73003365D01*
X102253419Y-73004959D01*
X102353848Y-73005979D01*
X102481501Y-73006551D01*
X102639398Y-73006802D01*
X102830559Y-73006857D01*
X103631314Y-73006857D01*
X103563621Y-72884393D01*
X103495929Y-72761929D01*
X103495929Y-69205929D01*
X103563621Y-69083465D01*
X103631314Y-68961000D01*
X102199993Y-68961000D01*
X102194818Y-70843322D01*
X102189643Y-72725643D01*
X102138903Y-72834008D01*
X102112151Y-72887719D01*
X102081860Y-72941524D01*
X102058984Y-72974615D01*
X102058926Y-72974679D01*
X102053373Y-72982367D01*
X101574946Y-72982367D01*
X101574026Y-72884129D01*
X101572789Y-72696740D01*
X101571808Y-72485085D01*
X101571035Y-72247661D01*
X101570422Y-71982966D01*
X101569921Y-71689498D01*
X101569484Y-71365753D01*
X101569061Y-71010230D01*
X101568605Y-70621426D01*
X101568068Y-70197840D01*
X101567999Y-70146560D01*
X101567400Y-69725657D01*
X101566827Y-69339362D01*
X101566323Y-68986172D01*
X101565930Y-68664584D01*
X101565690Y-68373094D01*
X101565646Y-68110200D01*
X101565840Y-67874398D01*
X101566314Y-67664186D01*
X101567112Y-67478060D01*
X101568274Y-67314517D01*
X101569844Y-67172055D01*
X101571864Y-67049170D01*
X101574377Y-66944359D01*
X101577424Y-66856119D01*
X101581049Y-66782947D01*
X101585293Y-66723340D01*
X101590198Y-66675795D01*
X101595808Y-66638808D01*
X101602165Y-66610878D01*
X101609311Y-66590500D01*
X101617288Y-66576171D01*
X101626139Y-66566390D01*
X101635906Y-66559651D01*
X101646632Y-66554454D01*
X101658358Y-66549293D01*
X101671128Y-66542667D01*
X101674865Y-66540556D01*
X101731405Y-66520118D01*
X101793300Y-66511717D01*
X101863072Y-66511720D01*
X101864234Y-66670467D01*
X101864529Y-66688735D01*
X101886706Y-66874427D01*
X101943188Y-67049147D01*
X102033192Y-67211043D01*
X102155932Y-67358265D01*
X102221798Y-67418311D01*
X102368454Y-67517838D01*
X102528470Y-67587242D01*
X102697185Y-67626487D01*
X102869939Y-67635537D01*
X103042072Y-67614353D01*
X103208922Y-67562899D01*
X103346080Y-67491429D01*
X103953127Y-67491429D01*
X104032957Y-67548862D01*
X104100470Y-67602841D01*
X104195603Y-67690886D01*
X104303507Y-67801230D01*
X104420097Y-67929670D01*
X104541285Y-68072000D01*
X104572494Y-68110062D01*
X104625629Y-68175343D01*
X104695083Y-68260988D01*
X104778556Y-68364140D01*
X104873746Y-68481939D01*
X104978354Y-68611528D01*
X105090077Y-68750047D01*
X105206615Y-68894639D01*
X105260067Y-68961000D01*
X105325667Y-69042444D01*
X105444932Y-69190603D01*
X105562109Y-69336260D01*
X105674896Y-69476554D01*
X105780994Y-69608627D01*
X105878101Y-69729621D01*
X105963916Y-69836678D01*
X106036138Y-69926938D01*
X106092466Y-69997543D01*
X106130599Y-70045635D01*
X106148237Y-70068355D01*
X106149692Y-70076893D01*
X106144850Y-70093132D01*
X106132302Y-70118679D01*
X106110797Y-70155347D01*
X106079080Y-70204949D01*
X106035900Y-70269295D01*
X105980005Y-70350198D01*
X105910141Y-70449471D01*
X105825057Y-70568926D01*
X105723499Y-70710374D01*
X105604216Y-70875629D01*
X105465954Y-71066501D01*
X105307462Y-71284804D01*
X105181177Y-71458571D01*
X105027105Y-71670407D01*
X104891580Y-71856440D01*
X104773024Y-72018734D01*
X104669861Y-72159354D01*
X104580515Y-72280365D01*
X104503411Y-72383832D01*
X104436972Y-72471818D01*
X104379623Y-72546390D01*
X104329786Y-72609610D01*
X104285886Y-72663545D01*
X104246347Y-72710258D01*
X104209593Y-72751814D01*
X104174047Y-72790279D01*
X104138135Y-72827715D01*
X104100278Y-72866189D01*
X103960771Y-73006857D01*
X105836357Y-73006933D01*
X105830464Y-72893275D01*
X105830179Y-72887564D01*
X105829060Y-72842127D01*
X105831181Y-72798593D01*
X105837958Y-72754576D01*
X105850812Y-72707693D01*
X105871160Y-72655558D01*
X105900420Y-72595786D01*
X105940012Y-72525994D01*
X105991353Y-72443797D01*
X106055862Y-72346809D01*
X106134957Y-72232647D01*
X106230057Y-72098925D01*
X106342581Y-71943260D01*
X106473946Y-71763265D01*
X106625572Y-71556557D01*
X107160786Y-70827911D01*
X107165501Y-71672755D01*
X107165919Y-71751562D01*
X107166656Y-71963832D01*
X107166321Y-72144381D01*
X107164519Y-72296628D01*
X107160856Y-72423988D01*
X107154936Y-72529878D01*
X107146367Y-72617715D01*
X107134751Y-72690916D01*
X107119697Y-72752898D01*
X107100807Y-72807076D01*
X107077689Y-72856869D01*
X107049947Y-72905693D01*
X107017187Y-72956964D01*
X106984256Y-73006857D01*
X108695704Y-73006857D01*
X108651496Y-72947893D01*
X108644572Y-72938565D01*
X108589221Y-72853070D01*
X108551064Y-72766644D01*
X108526008Y-72667613D01*
X108509959Y-72544304D01*
X108509518Y-72538929D01*
X108507189Y-72488067D01*
X108505087Y-72403206D01*
X108503219Y-72286286D01*
X108501596Y-72139246D01*
X108500227Y-71964026D01*
X108499120Y-71762563D01*
X108498285Y-71536798D01*
X108497732Y-71288669D01*
X108497468Y-71020115D01*
X108497503Y-70733077D01*
X108497847Y-70429492D01*
X108498508Y-70111300D01*
X108499209Y-69825881D01*
X108499958Y-69515196D01*
X108500696Y-69237226D01*
X108501515Y-68990022D01*
X108502507Y-68771637D01*
X108503766Y-68580125D01*
X108505383Y-68413537D01*
X108507452Y-68269925D01*
X108510065Y-68147344D01*
X108513315Y-68043844D01*
X108517293Y-67957479D01*
X108522094Y-67886301D01*
X108527809Y-67828363D01*
X108534532Y-67781717D01*
X108542354Y-67744416D01*
X108551368Y-67714512D01*
X108561667Y-67690058D01*
X108573344Y-67669106D01*
X108586492Y-67649709D01*
X108601202Y-67629920D01*
X108617567Y-67607791D01*
X108633396Y-67585615D01*
X108663991Y-67541769D01*
X108682317Y-67514107D01*
X108682759Y-67512949D01*
X108676360Y-67507718D01*
X108653779Y-67503353D01*
X108612502Y-67499788D01*
X108550017Y-67496954D01*
X108463812Y-67494787D01*
X108351373Y-67493217D01*
X108210188Y-67492179D01*
X108037745Y-67491605D01*
X107831530Y-67491429D01*
X106967060Y-67491429D01*
X107012621Y-67545574D01*
X107039026Y-67582763D01*
X107082978Y-67670446D01*
X107121495Y-67779499D01*
X107150893Y-67900468D01*
X107152766Y-67911952D01*
X107158341Y-67972492D01*
X107162563Y-68066056D01*
X107165443Y-68193292D01*
X107166992Y-68354846D01*
X107167221Y-68551368D01*
X107166143Y-68783504D01*
X107160786Y-69558508D01*
X106607429Y-68858742D01*
X106591579Y-68838698D01*
X106451253Y-68661052D01*
X106331453Y-68508914D01*
X106230270Y-68379698D01*
X106145800Y-68270817D01*
X106076135Y-68179685D01*
X106019368Y-68103714D01*
X105973594Y-68040317D01*
X105936906Y-67986908D01*
X105907396Y-67940901D01*
X105883159Y-67899707D01*
X105862288Y-67860741D01*
X105842877Y-67821415D01*
X105813015Y-67751805D01*
X105793724Y-67678372D01*
X105788592Y-67599165D01*
X105789108Y-67491429D01*
X103953127Y-67491429D01*
X103346080Y-67491429D01*
X103365830Y-67481138D01*
X103508136Y-67369032D01*
X103547695Y-67329510D01*
X103664620Y-67183175D01*
X103747588Y-67024367D01*
X103797043Y-66852063D01*
X103813429Y-66665238D01*
X103813429Y-66511715D01*
X106417830Y-66511714D01*
X106580540Y-66511707D01*
X106930089Y-66511660D01*
X107245856Y-66511626D01*
X107529588Y-66511673D01*
X107783031Y-66511872D01*
X108007931Y-66512291D01*
X108206034Y-66512998D01*
X108379087Y-66514065D01*
X108528835Y-66515558D01*
X108657025Y-66517547D01*
X108765403Y-66520102D01*
X108855715Y-66523291D01*
X108929707Y-66527183D01*
X108989125Y-66531848D01*
X109035716Y-66537354D01*
X109071226Y-66543771D01*
X109097400Y-66551167D01*
X109115986Y-66559611D01*
X109128728Y-66569173D01*
X109137374Y-66579922D01*
X109143670Y-66591926D01*
X109149360Y-66605255D01*
X109156193Y-66619978D01*
X109156316Y-66620218D01*
X109159633Y-66629856D01*
X109162676Y-66645993D01*
X109165456Y-66670121D01*
X109167985Y-66703727D01*
X109170274Y-66748301D01*
X109172334Y-66805333D01*
X109174179Y-66876311D01*
X109175817Y-66962725D01*
X109177263Y-67066064D01*
X109178526Y-67187818D01*
X109179619Y-67329475D01*
X109180553Y-67492526D01*
X109181340Y-67678458D01*
X109181991Y-67888762D01*
X109182517Y-68124927D01*
X109182931Y-68388442D01*
X109183244Y-68680797D01*
X109183467Y-69003480D01*
X109183612Y-69357981D01*
X109183691Y-69745789D01*
X109183714Y-70168393D01*
X109183715Y-70251414D01*
X109183755Y-70669614D01*
X109183817Y-71053313D01*
X109183854Y-71404009D01*
X109183817Y-71723204D01*
X109183662Y-72012398D01*
X109183339Y-72273091D01*
X109182801Y-72506784D01*
X109182001Y-72714976D01*
X109180892Y-72899168D01*
X109179916Y-73006857D01*
X109179428Y-73060860D01*
X109177560Y-73201553D01*
G36*
X102860579Y-74462264D02*
G01*
X102906051Y-74493301D01*
X102942942Y-74530192D01*
X102942942Y-74946978D01*
X102942887Y-75058852D01*
X102942543Y-75157668D01*
X102941650Y-75233226D01*
X102939949Y-75289104D01*
X102937181Y-75328882D01*
X102933088Y-75356136D01*
X102927409Y-75374447D01*
X102919888Y-75387391D01*
X102910263Y-75398548D01*
X102868374Y-75427125D01*
X102821556Y-75429476D01*
X102777617Y-75403274D01*
X102770551Y-75395461D01*
X102763296Y-75383367D01*
X102757750Y-75365605D01*
X102753683Y-75338690D01*
X102750869Y-75299138D01*
X102749077Y-75243465D01*
X102748081Y-75168185D01*
X102747650Y-75069816D01*
X102747557Y-74944872D01*
X102747610Y-74844140D01*
X102747949Y-74740414D01*
X102748807Y-74660519D01*
X102750410Y-74600971D01*
X102752988Y-74558284D01*
X102756769Y-74528975D01*
X102761982Y-74509559D01*
X102768855Y-74496552D01*
X102777617Y-74486470D01*
X102816470Y-74461145D01*
X102860579Y-74462264D01*
G37*
X102860579Y-74462264D02*
X102906051Y-74493301D01*
X102942942Y-74530192D01*
X102942942Y-74946978D01*
X102942887Y-75058852D01*
X102942543Y-75157668D01*
X102941650Y-75233226D01*
X102939949Y-75289104D01*
X102937181Y-75328882D01*
X102933088Y-75356136D01*
X102927409Y-75374447D01*
X102919888Y-75387391D01*
X102910263Y-75398548D01*
X102868374Y-75427125D01*
X102821556Y-75429476D01*
X102777617Y-75403274D01*
X102770551Y-75395461D01*
X102763296Y-75383367D01*
X102757750Y-75365605D01*
X102753683Y-75338690D01*
X102750869Y-75299138D01*
X102749077Y-75243465D01*
X102748081Y-75168185D01*
X102747650Y-75069816D01*
X102747557Y-74944872D01*
X102747610Y-74844140D01*
X102747949Y-74740414D01*
X102748807Y-74660519D01*
X102750410Y-74600971D01*
X102752988Y-74558284D01*
X102756769Y-74528975D01*
X102761982Y-74509559D01*
X102768855Y-74496552D01*
X102777617Y-74486470D01*
X102816470Y-74461145D01*
X102860579Y-74462264D01*
G36*
X97797449Y-75313950D02*
G01*
X97793550Y-75344466D01*
X97788122Y-75365504D01*
X97780914Y-75380711D01*
X97771674Y-75393733D01*
X97740524Y-75433334D01*
X97519928Y-75432543D01*
X97473602Y-75432146D01*
X97342485Y-75427579D01*
X97234696Y-75417351D01*
X97145369Y-75400632D01*
X97069637Y-75376595D01*
X97002634Y-75344409D01*
X96998162Y-75341857D01*
X96921194Y-75292972D01*
X96864805Y-75243757D01*
X96821115Y-75185862D01*
X96782239Y-75110937D01*
X96776539Y-75098135D01*
X96746480Y-75014012D01*
X96738845Y-74953362D01*
X96937544Y-74953362D01*
X96945017Y-74986284D01*
X96952640Y-75007424D01*
X96996482Y-75087183D01*
X97059506Y-75148097D01*
X97144401Y-75192212D01*
X97253851Y-75221575D01*
X97257570Y-75222243D01*
X97319193Y-75230181D01*
X97394277Y-75235810D01*
X97467418Y-75237949D01*
X97592409Y-75237949D01*
X97592409Y-74651795D01*
X97475930Y-74652392D01*
X97386836Y-74655688D01*
X97263821Y-74670668D01*
X97158224Y-74696682D01*
X97075713Y-74732594D01*
X97034521Y-74760191D01*
X96997083Y-74799820D01*
X96966010Y-74856307D01*
X96956521Y-74877564D01*
X96940779Y-74920836D01*
X96937544Y-74953362D01*
X96738845Y-74953362D01*
X96737199Y-74940284D01*
X96748651Y-74867024D01*
X96780792Y-74784304D01*
X96781851Y-74782050D01*
X96835707Y-74689624D01*
X96903186Y-74614271D01*
X96986697Y-74554935D01*
X97088647Y-74510563D01*
X97211445Y-74480101D01*
X97357499Y-74462493D01*
X97529217Y-74456687D01*
X97533972Y-74456681D01*
X97613881Y-74456867D01*
X97669706Y-74458247D01*
X97707135Y-74461701D01*
X97731857Y-74468108D01*
X97749560Y-74478348D01*
X97765933Y-74493301D01*
X97802824Y-74530192D01*
X97802824Y-74942162D01*
X97802790Y-75024181D01*
X97802490Y-75129072D01*
X97801668Y-75209900D01*
X97800926Y-75237949D01*
X97800071Y-75270311D01*
X97797449Y-75313950D01*
G37*
X97797449Y-75313950D02*
X97793550Y-75344466D01*
X97788122Y-75365504D01*
X97780914Y-75380711D01*
X97771674Y-75393733D01*
X97740524Y-75433334D01*
X97519928Y-75432543D01*
X97473602Y-75432146D01*
X97342485Y-75427579D01*
X97234696Y-75417351D01*
X97145369Y-75400632D01*
X97069637Y-75376595D01*
X97002634Y-75344409D01*
X96998162Y-75341857D01*
X96921194Y-75292972D01*
X96864805Y-75243757D01*
X96821115Y-75185862D01*
X96782239Y-75110937D01*
X96776539Y-75098135D01*
X96746480Y-75014012D01*
X96738845Y-74953362D01*
X96937544Y-74953362D01*
X96945017Y-74986284D01*
X96952640Y-75007424D01*
X96996482Y-75087183D01*
X97059506Y-75148097D01*
X97144401Y-75192212D01*
X97253851Y-75221575D01*
X97257570Y-75222243D01*
X97319193Y-75230181D01*
X97394277Y-75235810D01*
X97467418Y-75237949D01*
X97592409Y-75237949D01*
X97592409Y-74651795D01*
X97475930Y-74652392D01*
X97386836Y-74655688D01*
X97263821Y-74670668D01*
X97158224Y-74696682D01*
X97075713Y-74732594D01*
X97034521Y-74760191D01*
X96997083Y-74799820D01*
X96966010Y-74856307D01*
X96956521Y-74877564D01*
X96940779Y-74920836D01*
X96937544Y-74953362D01*
X96738845Y-74953362D01*
X96737199Y-74940284D01*
X96748651Y-74867024D01*
X96780792Y-74784304D01*
X96781851Y-74782050D01*
X96835707Y-74689624D01*
X96903186Y-74614271D01*
X96986697Y-74554935D01*
X97088647Y-74510563D01*
X97211445Y-74480101D01*
X97357499Y-74462493D01*
X97529217Y-74456687D01*
X97533972Y-74456681D01*
X97613881Y-74456867D01*
X97669706Y-74458247D01*
X97707135Y-74461701D01*
X97731857Y-74468108D01*
X97749560Y-74478348D01*
X97765933Y-74493301D01*
X97802824Y-74530192D01*
X97802824Y-74942162D01*
X97802790Y-75024181D01*
X97802490Y-75129072D01*
X97801668Y-75209900D01*
X97800926Y-75237949D01*
X97800071Y-75270311D01*
X97797449Y-75313950D01*
G36*
X99124336Y-74496011D02*
G01*
X99130925Y-74504910D01*
X99138706Y-74518984D01*
X99144645Y-74537739D01*
X99148991Y-74564799D01*
X99151990Y-74603790D01*
X99153892Y-74658339D01*
X99154943Y-74732069D01*
X99155392Y-74828608D01*
X99155486Y-74951580D01*
X99155448Y-75039339D01*
X99155139Y-75143607D01*
X99154313Y-75223845D01*
X99152725Y-75283621D01*
X99150132Y-75326502D01*
X99146291Y-75356056D01*
X99140958Y-75375852D01*
X99133890Y-75389457D01*
X99124842Y-75400440D01*
X99118831Y-75406641D01*
X99107874Y-75415277D01*
X99092750Y-75421816D01*
X99069760Y-75426550D01*
X99035204Y-75429769D01*
X98985386Y-75431766D01*
X98916604Y-75432831D01*
X98825161Y-75433256D01*
X98707357Y-75433334D01*
X98681163Y-75433325D01*
X98565302Y-75432970D01*
X98475232Y-75431951D01*
X98407393Y-75430068D01*
X98358224Y-75427123D01*
X98324162Y-75422919D01*
X98301646Y-75417256D01*
X98287115Y-75409937D01*
X98273145Y-75396642D01*
X98255490Y-75355214D01*
X98257064Y-75307434D01*
X98278585Y-75265434D01*
X98281500Y-75262404D01*
X98293066Y-75254059D01*
X98310829Y-75247847D01*
X98338765Y-75243458D01*
X98380851Y-75240584D01*
X98441065Y-75238914D01*
X98523382Y-75238139D01*
X98631780Y-75237949D01*
X98960102Y-75237949D01*
X98960102Y-75027535D01*
X98743838Y-75027535D01*
X98696350Y-75027428D01*
X98622100Y-75026366D01*
X98569993Y-75023697D01*
X98534774Y-75018849D01*
X98511185Y-75011249D01*
X98493971Y-75000325D01*
X98489121Y-74996086D01*
X98464614Y-74954847D01*
X98463770Y-74906471D01*
X98487120Y-74861711D01*
X98487203Y-74861620D01*
X98500078Y-74850135D01*
X98517777Y-74842073D01*
X98545346Y-74836839D01*
X98587831Y-74833837D01*
X98650279Y-74832473D01*
X98737737Y-74832150D01*
X98961602Y-74832150D01*
X98957094Y-74745730D01*
X98952587Y-74659310D01*
X98630295Y-74655245D01*
X98596989Y-74654809D01*
X98488324Y-74652839D01*
X98405354Y-74649665D01*
X98344626Y-74644345D01*
X98302685Y-74635940D01*
X98276078Y-74623506D01*
X98261349Y-74606103D01*
X98255045Y-74582790D01*
X98253711Y-74552626D01*
X98253719Y-74549476D01*
X98255255Y-74522808D01*
X98261643Y-74501782D01*
X98276032Y-74485731D01*
X98301573Y-74473984D01*
X98341419Y-74465874D01*
X98398718Y-74460730D01*
X98476623Y-74457884D01*
X98578284Y-74456667D01*
X98706852Y-74456410D01*
X99093186Y-74456410D01*
X99124336Y-74496011D01*
G37*
X99124336Y-74496011D02*
X99130925Y-74504910D01*
X99138706Y-74518984D01*
X99144645Y-74537739D01*
X99148991Y-74564799D01*
X99151990Y-74603790D01*
X99153892Y-74658339D01*
X99154943Y-74732069D01*
X99155392Y-74828608D01*
X99155486Y-74951580D01*
X99155448Y-75039339D01*
X99155139Y-75143607D01*
X99154313Y-75223845D01*
X99152725Y-75283621D01*
X99150132Y-75326502D01*
X99146291Y-75356056D01*
X99140958Y-75375852D01*
X99133890Y-75389457D01*
X99124842Y-75400440D01*
X99118831Y-75406641D01*
X99107874Y-75415277D01*
X99092750Y-75421816D01*
X99069760Y-75426550D01*
X99035204Y-75429769D01*
X98985386Y-75431766D01*
X98916604Y-75432831D01*
X98825161Y-75433256D01*
X98707357Y-75433334D01*
X98681163Y-75433325D01*
X98565302Y-75432970D01*
X98475232Y-75431951D01*
X98407393Y-75430068D01*
X98358224Y-75427123D01*
X98324162Y-75422919D01*
X98301646Y-75417256D01*
X98287115Y-75409937D01*
X98273145Y-75396642D01*
X98255490Y-75355214D01*
X98257064Y-75307434D01*
X98278585Y-75265434D01*
X98281500Y-75262404D01*
X98293066Y-75254059D01*
X98310829Y-75247847D01*
X98338765Y-75243458D01*
X98380851Y-75240584D01*
X98441065Y-75238914D01*
X98523382Y-75238139D01*
X98631780Y-75237949D01*
X98960102Y-75237949D01*
X98960102Y-75027535D01*
X98743838Y-75027535D01*
X98696350Y-75027428D01*
X98622100Y-75026366D01*
X98569993Y-75023697D01*
X98534774Y-75018849D01*
X98511185Y-75011249D01*
X98493971Y-75000325D01*
X98489121Y-74996086D01*
X98464614Y-74954847D01*
X98463770Y-74906471D01*
X98487120Y-74861711D01*
X98487203Y-74861620D01*
X98500078Y-74850135D01*
X98517777Y-74842073D01*
X98545346Y-74836839D01*
X98587831Y-74833837D01*
X98650279Y-74832473D01*
X98737737Y-74832150D01*
X98961602Y-74832150D01*
X98957094Y-74745730D01*
X98952587Y-74659310D01*
X98630295Y-74655245D01*
X98596989Y-74654809D01*
X98488324Y-74652839D01*
X98405354Y-74649665D01*
X98344626Y-74644345D01*
X98302685Y-74635940D01*
X98276078Y-74623506D01*
X98261349Y-74606103D01*
X98255045Y-74582790D01*
X98253711Y-74552626D01*
X98253719Y-74549476D01*
X98255255Y-74522808D01*
X98261643Y-74501782D01*
X98276032Y-74485731D01*
X98301573Y-74473984D01*
X98341419Y-74465874D01*
X98398718Y-74460730D01*
X98476623Y-74457884D01*
X98578284Y-74456667D01*
X98706852Y-74456410D01*
X99093186Y-74456410D01*
X99124336Y-74496011D01*
G36*
X92903255Y-71364433D02*
G01*
X92892247Y-71512502D01*
X92873229Y-71648798D01*
X92845349Y-71781375D01*
X92807754Y-71918286D01*
X92750743Y-72081936D01*
X92646036Y-72302857D01*
X92517598Y-72500734D01*
X92367393Y-72673697D01*
X92197387Y-72819876D01*
X92009545Y-72937401D01*
X91805832Y-73024402D01*
X91588212Y-73079009D01*
X91585593Y-73079447D01*
X91426553Y-73094750D01*
X91251809Y-73092707D01*
X91073820Y-73074579D01*
X90905046Y-73041624D01*
X90757948Y-72995101D01*
X90695161Y-72966791D01*
X90613387Y-72923761D01*
X90529359Y-72874546D01*
X90451845Y-72824563D01*
X90389612Y-72779229D01*
X90351429Y-72743960D01*
X90342663Y-72734277D01*
X90332214Y-72730892D01*
X90325229Y-72747696D01*
X90320082Y-72790045D01*
X90315143Y-72863295D01*
X90306072Y-73015929D01*
X88916360Y-73025433D01*
X88964439Y-72943393D01*
X88967305Y-72938543D01*
X88981285Y-72915772D01*
X88993969Y-72895487D01*
X89005423Y-72875925D01*
X89015715Y-72855324D01*
X89024915Y-72831920D01*
X89033090Y-72803953D01*
X89040309Y-72769660D01*
X89046640Y-72727278D01*
X89052151Y-72675046D01*
X89056910Y-72611200D01*
X89060985Y-72533979D01*
X89064446Y-72441620D01*
X89067359Y-72332361D01*
X89069794Y-72204440D01*
X89071818Y-72056094D01*
X89073452Y-71890556D01*
X90396786Y-71890556D01*
X90487500Y-71950057D01*
X90522386Y-71971491D01*
X90602265Y-72014311D01*
X90678000Y-72048410D01*
X90711168Y-72059955D01*
X90816705Y-72083004D01*
X90950143Y-72094773D01*
X91017996Y-72097222D01*
X91080980Y-72096666D01*
X91127866Y-72090375D01*
X91169920Y-72076626D01*
X91218409Y-72053692D01*
X91311595Y-71992259D01*
X91392324Y-71905358D01*
X91456945Y-71793369D01*
X91506073Y-71654539D01*
X91540321Y-71487111D01*
X91560306Y-71289329D01*
X91566641Y-71059440D01*
X91566333Y-71007175D01*
X91557225Y-70765015D01*
X91535109Y-70554302D01*
X91499447Y-70372814D01*
X91449701Y-70218327D01*
X91385333Y-70088619D01*
X91305805Y-69981466D01*
X91272812Y-69948763D01*
X91170560Y-69880632D01*
X91050526Y-69839173D01*
X90917910Y-69824622D01*
X90777913Y-69837214D01*
X90635733Y-69877185D01*
X90496572Y-69944771D01*
X90396786Y-70004584D01*
X90396786Y-71890556D01*
X89073452Y-71890556D01*
X89073501Y-71885562D01*
X89074909Y-71691081D01*
X89076112Y-71470888D01*
X89077177Y-71223221D01*
X89078173Y-70946318D01*
X89079168Y-70638417D01*
X89080231Y-70297756D01*
X89081429Y-69922572D01*
X89090500Y-67155786D01*
X89811679Y-67151042D01*
X89864124Y-67150723D01*
X90018429Y-67150089D01*
X90159564Y-67149961D01*
X90283677Y-67150311D01*
X90386915Y-67151112D01*
X90465426Y-67152340D01*
X90515357Y-67153967D01*
X90532857Y-67155967D01*
X90530618Y-67162305D01*
X90513917Y-67192356D01*
X90486255Y-67236057D01*
X90483495Y-67240235D01*
X90462048Y-67273977D01*
X90444065Y-67306806D01*
X90429242Y-67342105D01*
X90417274Y-67383255D01*
X90407856Y-67433638D01*
X90400683Y-67496634D01*
X90395450Y-67575627D01*
X90391852Y-67673997D01*
X90389584Y-67795126D01*
X90388342Y-67942396D01*
X90387821Y-68119188D01*
X90387714Y-68328884D01*
X90387905Y-68492603D01*
X90388487Y-68653339D01*
X90389419Y-68799083D01*
X90390659Y-68926286D01*
X90392164Y-69031400D01*
X90393893Y-69110875D01*
X90395802Y-69161163D01*
X90397850Y-69178714D01*
X90404455Y-69175990D01*
X90433490Y-69156807D01*
X90474957Y-69125303D01*
X90535072Y-69082936D01*
X90648021Y-69020511D01*
X90777116Y-68964828D01*
X90910309Y-68921525D01*
X91022215Y-68899444D01*
X91161587Y-68885368D01*
X91312426Y-68880492D01*
X91463093Y-68884820D01*
X91601946Y-68898359D01*
X91717345Y-68921115D01*
X91834847Y-68959447D01*
X92030869Y-69052371D01*
X92212371Y-69175908D01*
X92376004Y-69327212D01*
X92518419Y-69503440D01*
X92636270Y-69701746D01*
X92665528Y-69762556D01*
X92747518Y-69967670D01*
X92811619Y-70190285D01*
X92858642Y-70434325D01*
X92889395Y-70703713D01*
X92904690Y-71002374D01*
X92905400Y-71059440D01*
X92907105Y-71196537D01*
X92903255Y-71364433D01*
G37*
X92903255Y-71364433D02*
X92892247Y-71512502D01*
X92873229Y-71648798D01*
X92845349Y-71781375D01*
X92807754Y-71918286D01*
X92750743Y-72081936D01*
X92646036Y-72302857D01*
X92517598Y-72500734D01*
X92367393Y-72673697D01*
X92197387Y-72819876D01*
X92009545Y-72937401D01*
X91805832Y-73024402D01*
X91588212Y-73079009D01*
X91585593Y-73079447D01*
X91426553Y-73094750D01*
X91251809Y-73092707D01*
X91073820Y-73074579D01*
X90905046Y-73041624D01*
X90757948Y-72995101D01*
X90695161Y-72966791D01*
X90613387Y-72923761D01*
X90529359Y-72874546D01*
X90451845Y-72824563D01*
X90389612Y-72779229D01*
X90351429Y-72743960D01*
X90342663Y-72734277D01*
X90332214Y-72730892D01*
X90325229Y-72747696D01*
X90320082Y-72790045D01*
X90315143Y-72863295D01*
X90306072Y-73015929D01*
X88916360Y-73025433D01*
X88964439Y-72943393D01*
X88967305Y-72938543D01*
X88981285Y-72915772D01*
X88993969Y-72895487D01*
X89005423Y-72875925D01*
X89015715Y-72855324D01*
X89024915Y-72831920D01*
X89033090Y-72803953D01*
X89040309Y-72769660D01*
X89046640Y-72727278D01*
X89052151Y-72675046D01*
X89056910Y-72611200D01*
X89060985Y-72533979D01*
X89064446Y-72441620D01*
X89067359Y-72332361D01*
X89069794Y-72204440D01*
X89071818Y-72056094D01*
X89073452Y-71890556D01*
X90396786Y-71890556D01*
X90487500Y-71950057D01*
X90522386Y-71971491D01*
X90602265Y-72014311D01*
X90678000Y-72048410D01*
X90711168Y-72059955D01*
X90816705Y-72083004D01*
X90950143Y-72094773D01*
X91017996Y-72097222D01*
X91080980Y-72096666D01*
X91127866Y-72090375D01*
X91169920Y-72076626D01*
X91218409Y-72053692D01*
X91311595Y-71992259D01*
X91392324Y-71905358D01*
X91456945Y-71793369D01*
X91506073Y-71654539D01*
X91540321Y-71487111D01*
X91560306Y-71289329D01*
X91566641Y-71059440D01*
X91566333Y-71007175D01*
X91557225Y-70765015D01*
X91535109Y-70554302D01*
X91499447Y-70372814D01*
X91449701Y-70218327D01*
X91385333Y-70088619D01*
X91305805Y-69981466D01*
X91272812Y-69948763D01*
X91170560Y-69880632D01*
X91050526Y-69839173D01*
X90917910Y-69824622D01*
X90777913Y-69837214D01*
X90635733Y-69877185D01*
X90496572Y-69944771D01*
X90396786Y-70004584D01*
X90396786Y-71890556D01*
X89073452Y-71890556D01*
X89073501Y-71885562D01*
X89074909Y-71691081D01*
X89076112Y-71470888D01*
X89077177Y-71223221D01*
X89078173Y-70946318D01*
X89079168Y-70638417D01*
X89080231Y-70297756D01*
X89081429Y-69922572D01*
X89090500Y-67155786D01*
X89811679Y-67151042D01*
X89864124Y-67150723D01*
X90018429Y-67150089D01*
X90159564Y-67149961D01*
X90283677Y-67150311D01*
X90386915Y-67151112D01*
X90465426Y-67152340D01*
X90515357Y-67153967D01*
X90532857Y-67155967D01*
X90530618Y-67162305D01*
X90513917Y-67192356D01*
X90486255Y-67236057D01*
X90483495Y-67240235D01*
X90462048Y-67273977D01*
X90444065Y-67306806D01*
X90429242Y-67342105D01*
X90417274Y-67383255D01*
X90407856Y-67433638D01*
X90400683Y-67496634D01*
X90395450Y-67575627D01*
X90391852Y-67673997D01*
X90389584Y-67795126D01*
X90388342Y-67942396D01*
X90387821Y-68119188D01*
X90387714Y-68328884D01*
X90387905Y-68492603D01*
X90388487Y-68653339D01*
X90389419Y-68799083D01*
X90390659Y-68926286D01*
X90392164Y-69031400D01*
X90393893Y-69110875D01*
X90395802Y-69161163D01*
X90397850Y-69178714D01*
X90404455Y-69175990D01*
X90433490Y-69156807D01*
X90474957Y-69125303D01*
X90535072Y-69082936D01*
X90648021Y-69020511D01*
X90777116Y-68964828D01*
X90910309Y-68921525D01*
X91022215Y-68899444D01*
X91161587Y-68885368D01*
X91312426Y-68880492D01*
X91463093Y-68884820D01*
X91601946Y-68898359D01*
X91717345Y-68921115D01*
X91834847Y-68959447D01*
X92030869Y-69052371D01*
X92212371Y-69175908D01*
X92376004Y-69327212D01*
X92518419Y-69503440D01*
X92636270Y-69701746D01*
X92665528Y-69762556D01*
X92747518Y-69967670D01*
X92811619Y-70190285D01*
X92858642Y-70434325D01*
X92889395Y-70703713D01*
X92904690Y-71002374D01*
X92905400Y-71059440D01*
X92907105Y-71196537D01*
X92903255Y-71364433D01*
G36*
X96999842Y-71913722D02*
G01*
X96982232Y-72049833D01*
X96955659Y-72163214D01*
X96913259Y-72279867D01*
X96814976Y-72472110D01*
X96689350Y-72641247D01*
X96537681Y-72786126D01*
X96361271Y-72905594D01*
X96161420Y-72998499D01*
X95939429Y-73063689D01*
X95848907Y-73078392D01*
X95719552Y-73088611D01*
X95578675Y-73090909D01*
X95438050Y-73085472D01*
X95309449Y-73072485D01*
X95204643Y-73052133D01*
X95151979Y-73036109D01*
X95032369Y-72989219D01*
X94910783Y-72929688D01*
X94799765Y-72863971D01*
X94711859Y-72798524D01*
X94710778Y-72797579D01*
X94662607Y-72756736D01*
X94625545Y-72727653D01*
X94607537Y-72716572D01*
X94605568Y-72719217D01*
X94601113Y-72747794D01*
X94598018Y-72801094D01*
X94596857Y-72870786D01*
X94596857Y-73025000D01*
X93916500Y-73025000D01*
X93898389Y-73024997D01*
X93746490Y-73024731D01*
X93607078Y-73024070D01*
X93484118Y-73023062D01*
X93381579Y-73021758D01*
X93303426Y-73020205D01*
X93253625Y-73018454D01*
X93236143Y-73016553D01*
X93236550Y-73014893D01*
X93247988Y-72990377D01*
X93271962Y-72944317D01*
X93304179Y-72885018D01*
X93372215Y-72761929D01*
X93382190Y-71546689D01*
X94669429Y-71546689D01*
X94669935Y-71642703D01*
X94672387Y-71743587D01*
X94677190Y-71816507D01*
X94684695Y-71866212D01*
X94695250Y-71897449D01*
X94708828Y-71919755D01*
X94759962Y-71980561D01*
X94828475Y-72043863D01*
X94903568Y-72100265D01*
X94974440Y-72140370D01*
X95013761Y-72155085D01*
X95104302Y-72174677D01*
X95222555Y-72184694D01*
X95347232Y-72183177D01*
X95465627Y-72162574D01*
X95564449Y-72120011D01*
X95649948Y-72053571D01*
X95674000Y-72028995D01*
X95736622Y-71945185D01*
X95770504Y-71854850D01*
X95780679Y-71746151D01*
X95777922Y-71688725D01*
X95750661Y-71570507D01*
X95693390Y-71469039D01*
X95605068Y-71383179D01*
X95484651Y-71311784D01*
X95331097Y-71253714D01*
X95269193Y-71238475D01*
X95194251Y-71228041D01*
X95099937Y-71222246D01*
X94977857Y-71220298D01*
X94958026Y-71220299D01*
X94866696Y-71221414D01*
X94788244Y-71224108D01*
X94730471Y-71228029D01*
X94701179Y-71232824D01*
X94697808Y-71234380D01*
X94686910Y-71244154D01*
X94679192Y-71263794D01*
X94674119Y-71298585D01*
X94671157Y-71353809D01*
X94669772Y-71434750D01*
X94669429Y-71546689D01*
X93382190Y-71546689D01*
X93382714Y-71482857D01*
X93384275Y-71296561D01*
X93386458Y-71058965D01*
X93388750Y-70852698D01*
X93391335Y-70674842D01*
X93394400Y-70522481D01*
X93398128Y-70392696D01*
X93402705Y-70282572D01*
X93408316Y-70189190D01*
X93415147Y-70109635D01*
X93423383Y-70040988D01*
X93433208Y-69980333D01*
X93444808Y-69924752D01*
X93458368Y-69871329D01*
X93474073Y-69817146D01*
X93492109Y-69759286D01*
X93563161Y-69577898D01*
X93660464Y-69410258D01*
X93781641Y-69266732D01*
X93927803Y-69146570D01*
X94100057Y-69049020D01*
X94299515Y-68973331D01*
X94527285Y-68918753D01*
X94784477Y-68884535D01*
X94874368Y-68877730D01*
X95025760Y-68872755D01*
X95175814Y-68877235D01*
X95331554Y-68891927D01*
X95500005Y-68917584D01*
X95688193Y-68954962D01*
X95903143Y-69004818D01*
X95952828Y-69016881D01*
X96077601Y-69046565D01*
X96195861Y-69073898D01*
X96300436Y-69097263D01*
X96384154Y-69115047D01*
X96439845Y-69125636D01*
X96568333Y-69146740D01*
X96387695Y-69584549D01*
X96342512Y-69693859D01*
X96298061Y-69800969D01*
X96259923Y-69892418D01*
X96229969Y-69963733D01*
X96210071Y-70010437D01*
X96202103Y-70028058D01*
X96200850Y-70028310D01*
X96177758Y-70020443D01*
X96132353Y-70000283D01*
X96072824Y-69971417D01*
X95949096Y-69915203D01*
X95778837Y-69853740D01*
X95604578Y-69806670D01*
X95433133Y-69775177D01*
X95271317Y-69760443D01*
X95125944Y-69763650D01*
X95003829Y-69785979D01*
X94918601Y-69821409D01*
X94821809Y-69894017D01*
X94747297Y-69992518D01*
X94697199Y-70113883D01*
X94673649Y-70255080D01*
X94665355Y-70385215D01*
X95098285Y-70386400D01*
X95244285Y-70387624D01*
X95405771Y-70391972D01*
X95543725Y-70400178D01*
X95665281Y-70413039D01*
X95777577Y-70431354D01*
X95887747Y-70455919D01*
X96002929Y-70487533D01*
X96175268Y-70547709D01*
X96377975Y-70646806D01*
X96555876Y-70768190D01*
X96707217Y-70910155D01*
X96830243Y-71070993D01*
X96923199Y-71248997D01*
X96984330Y-71442460D01*
X96993904Y-71494565D01*
X97006177Y-71623533D01*
X97007722Y-71746151D01*
X97007990Y-71767437D01*
X96999842Y-71913722D01*
G37*
X96999842Y-71913722D02*
X96982232Y-72049833D01*
X96955659Y-72163214D01*
X96913259Y-72279867D01*
X96814976Y-72472110D01*
X96689350Y-72641247D01*
X96537681Y-72786126D01*
X96361271Y-72905594D01*
X96161420Y-72998499D01*
X95939429Y-73063689D01*
X95848907Y-73078392D01*
X95719552Y-73088611D01*
X95578675Y-73090909D01*
X95438050Y-73085472D01*
X95309449Y-73072485D01*
X95204643Y-73052133D01*
X95151979Y-73036109D01*
X95032369Y-72989219D01*
X94910783Y-72929688D01*
X94799765Y-72863971D01*
X94711859Y-72798524D01*
X94710778Y-72797579D01*
X94662607Y-72756736D01*
X94625545Y-72727653D01*
X94607537Y-72716572D01*
X94605568Y-72719217D01*
X94601113Y-72747794D01*
X94598018Y-72801094D01*
X94596857Y-72870786D01*
X94596857Y-73025000D01*
X93916500Y-73025000D01*
X93898389Y-73024997D01*
X93746490Y-73024731D01*
X93607078Y-73024070D01*
X93484118Y-73023062D01*
X93381579Y-73021758D01*
X93303426Y-73020205D01*
X93253625Y-73018454D01*
X93236143Y-73016553D01*
X93236550Y-73014893D01*
X93247988Y-72990377D01*
X93271962Y-72944317D01*
X93304179Y-72885018D01*
X93372215Y-72761929D01*
X93382190Y-71546689D01*
X94669429Y-71546689D01*
X94669935Y-71642703D01*
X94672387Y-71743587D01*
X94677190Y-71816507D01*
X94684695Y-71866212D01*
X94695250Y-71897449D01*
X94708828Y-71919755D01*
X94759962Y-71980561D01*
X94828475Y-72043863D01*
X94903568Y-72100265D01*
X94974440Y-72140370D01*
X95013761Y-72155085D01*
X95104302Y-72174677D01*
X95222555Y-72184694D01*
X95347232Y-72183177D01*
X95465627Y-72162574D01*
X95564449Y-72120011D01*
X95649948Y-72053571D01*
X95674000Y-72028995D01*
X95736622Y-71945185D01*
X95770504Y-71854850D01*
X95780679Y-71746151D01*
X95777922Y-71688725D01*
X95750661Y-71570507D01*
X95693390Y-71469039D01*
X95605068Y-71383179D01*
X95484651Y-71311784D01*
X95331097Y-71253714D01*
X95269193Y-71238475D01*
X95194251Y-71228041D01*
X95099937Y-71222246D01*
X94977857Y-71220298D01*
X94958026Y-71220299D01*
X94866696Y-71221414D01*
X94788244Y-71224108D01*
X94730471Y-71228029D01*
X94701179Y-71232824D01*
X94697808Y-71234380D01*
X94686910Y-71244154D01*
X94679192Y-71263794D01*
X94674119Y-71298585D01*
X94671157Y-71353809D01*
X94669772Y-71434750D01*
X94669429Y-71546689D01*
X93382190Y-71546689D01*
X93382714Y-71482857D01*
X93384275Y-71296561D01*
X93386458Y-71058965D01*
X93388750Y-70852698D01*
X93391335Y-70674842D01*
X93394400Y-70522481D01*
X93398128Y-70392696D01*
X93402705Y-70282572D01*
X93408316Y-70189190D01*
X93415147Y-70109635D01*
X93423383Y-70040988D01*
X93433208Y-69980333D01*
X93444808Y-69924752D01*
X93458368Y-69871329D01*
X93474073Y-69817146D01*
X93492109Y-69759286D01*
X93563161Y-69577898D01*
X93660464Y-69410258D01*
X93781641Y-69266732D01*
X93927803Y-69146570D01*
X94100057Y-69049020D01*
X94299515Y-68973331D01*
X94527285Y-68918753D01*
X94784477Y-68884535D01*
X94874368Y-68877730D01*
X95025760Y-68872755D01*
X95175814Y-68877235D01*
X95331554Y-68891927D01*
X95500005Y-68917584D01*
X95688193Y-68954962D01*
X95903143Y-69004818D01*
X95952828Y-69016881D01*
X96077601Y-69046565D01*
X96195861Y-69073898D01*
X96300436Y-69097263D01*
X96384154Y-69115047D01*
X96439845Y-69125636D01*
X96568333Y-69146740D01*
X96387695Y-69584549D01*
X96342512Y-69693859D01*
X96298061Y-69800969D01*
X96259923Y-69892418D01*
X96229969Y-69963733D01*
X96210071Y-70010437D01*
X96202103Y-70028058D01*
X96200850Y-70028310D01*
X96177758Y-70020443D01*
X96132353Y-70000283D01*
X96072824Y-69971417D01*
X95949096Y-69915203D01*
X95778837Y-69853740D01*
X95604578Y-69806670D01*
X95433133Y-69775177D01*
X95271317Y-69760443D01*
X95125944Y-69763650D01*
X95003829Y-69785979D01*
X94918601Y-69821409D01*
X94821809Y-69894017D01*
X94747297Y-69992518D01*
X94697199Y-70113883D01*
X94673649Y-70255080D01*
X94665355Y-70385215D01*
X95098285Y-70386400D01*
X95244285Y-70387624D01*
X95405771Y-70391972D01*
X95543725Y-70400178D01*
X95665281Y-70413039D01*
X95777577Y-70431354D01*
X95887747Y-70455919D01*
X96002929Y-70487533D01*
X96175268Y-70547709D01*
X96377975Y-70646806D01*
X96555876Y-70768190D01*
X96707217Y-70910155D01*
X96830243Y-71070993D01*
X96923199Y-71248997D01*
X96984330Y-71442460D01*
X96993904Y-71494565D01*
X97006177Y-71623533D01*
X97007722Y-71746151D01*
X97007990Y-71767437D01*
X96999842Y-71913722D01*
G36*
X98833834Y-67416031D02*
G01*
X99077638Y-67438413D01*
X99304132Y-67483551D01*
X99521742Y-67553345D01*
X99738891Y-67649696D01*
X99953845Y-67772715D01*
X100184534Y-67940422D01*
X100398459Y-68134323D01*
X100590911Y-68349618D01*
X100757180Y-68581507D01*
X100892553Y-68825190D01*
X100904841Y-68851258D01*
X101007750Y-69102881D01*
X101085946Y-69364345D01*
X101140439Y-69640646D01*
X101172241Y-69936779D01*
X101182360Y-70257739D01*
X101170056Y-70589528D01*
X101131001Y-70916276D01*
X101064590Y-71222149D01*
X100970227Y-71509317D01*
X100847320Y-71779949D01*
X100695273Y-72036214D01*
X100552450Y-72232000D01*
X100355243Y-72452289D01*
X100140296Y-72640974D01*
X99907703Y-72797993D01*
X99657558Y-72923285D01*
X99389957Y-73016786D01*
X99104992Y-73078437D01*
X99101740Y-73078917D01*
X99046862Y-73083732D01*
X98964049Y-73087304D01*
X98860958Y-73089465D01*
X98745246Y-73090050D01*
X98624572Y-73088891D01*
X98539997Y-73087192D01*
X98414512Y-73083258D01*
X98313958Y-73077626D01*
X98231083Y-73069694D01*
X98158634Y-73058863D01*
X98089357Y-73044530D01*
X98011416Y-73026007D01*
X97930099Y-73004914D01*
X97856556Y-72982787D01*
X97784112Y-72957033D01*
X97706093Y-72925060D01*
X97615825Y-72884278D01*
X97506631Y-72832093D01*
X97371839Y-72765915D01*
X96999036Y-72581677D01*
X97297628Y-72091231D01*
X97336719Y-72027041D01*
X97406950Y-71911810D01*
X97469811Y-71808794D01*
X97523004Y-71721748D01*
X97564233Y-71654432D01*
X97591200Y-71610601D01*
X97601607Y-71594015D01*
X97604502Y-71594510D01*
X97627820Y-71610742D01*
X97668786Y-71644429D01*
X97720927Y-71690345D01*
X97813787Y-71769678D01*
X97979562Y-71886990D01*
X98140403Y-71968771D01*
X98256631Y-72009611D01*
X98453222Y-72051348D01*
X98646378Y-72058746D01*
X98833299Y-72032309D01*
X99011183Y-71972540D01*
X99177230Y-71879943D01*
X99328637Y-71755022D01*
X99412886Y-71663014D01*
X99531574Y-71492831D01*
X99628964Y-71295342D01*
X99705519Y-71069536D01*
X99761707Y-70814401D01*
X99764256Y-70798562D01*
X99776033Y-70695903D01*
X99784800Y-70568351D01*
X99790486Y-70424622D01*
X99793021Y-70273431D01*
X99792333Y-70123493D01*
X99788352Y-69983524D01*
X99781006Y-69862241D01*
X99770225Y-69768357D01*
X99728900Y-69555692D01*
X99659365Y-69307270D01*
X99571915Y-69089781D01*
X99466665Y-68903393D01*
X99343732Y-68748273D01*
X99203235Y-68624590D01*
X99045288Y-68532512D01*
X98870010Y-68472209D01*
X98831121Y-68464724D01*
X98733666Y-68454951D01*
X98619773Y-68451761D01*
X98502204Y-68454979D01*
X98393717Y-68464429D01*
X98307072Y-68479936D01*
X98162732Y-68529313D01*
X97995228Y-68619456D01*
X97846080Y-68738084D01*
X97819756Y-68763073D01*
X97772057Y-68807285D01*
X97738345Y-68837042D01*
X97724649Y-68846941D01*
X97721277Y-68842207D01*
X97700523Y-68812313D01*
X97663028Y-68758033D01*
X97611270Y-68682962D01*
X97547728Y-68590694D01*
X97474877Y-68484823D01*
X97395197Y-68368944D01*
X97069286Y-67894817D01*
X97142092Y-67873004D01*
X97149690Y-67870532D01*
X97199145Y-67850898D01*
X97270447Y-67819239D01*
X97355228Y-67779362D01*
X97445120Y-67735076D01*
X97484292Y-67715496D01*
X97701804Y-67614409D01*
X97902283Y-67536238D01*
X98093438Y-67478985D01*
X98282981Y-67440649D01*
X98478622Y-67419231D01*
X98688072Y-67412731D01*
X98833834Y-67416031D01*
G37*
X98833834Y-67416031D02*
X99077638Y-67438413D01*
X99304132Y-67483551D01*
X99521742Y-67553345D01*
X99738891Y-67649696D01*
X99953845Y-67772715D01*
X100184534Y-67940422D01*
X100398459Y-68134323D01*
X100590911Y-68349618D01*
X100757180Y-68581507D01*
X100892553Y-68825190D01*
X100904841Y-68851258D01*
X101007750Y-69102881D01*
X101085946Y-69364345D01*
X101140439Y-69640646D01*
X101172241Y-69936779D01*
X101182360Y-70257739D01*
X101170056Y-70589528D01*
X101131001Y-70916276D01*
X101064590Y-71222149D01*
X100970227Y-71509317D01*
X100847320Y-71779949D01*
X100695273Y-72036214D01*
X100552450Y-72232000D01*
X100355243Y-72452289D01*
X100140296Y-72640974D01*
X99907703Y-72797993D01*
X99657558Y-72923285D01*
X99389957Y-73016786D01*
X99104992Y-73078437D01*
X99101740Y-73078917D01*
X99046862Y-73083732D01*
X98964049Y-73087304D01*
X98860958Y-73089465D01*
X98745246Y-73090050D01*
X98624572Y-73088891D01*
X98539997Y-73087192D01*
X98414512Y-73083258D01*
X98313958Y-73077626D01*
X98231083Y-73069694D01*
X98158634Y-73058863D01*
X98089357Y-73044530D01*
X98011416Y-73026007D01*
X97930099Y-73004914D01*
X97856556Y-72982787D01*
X97784112Y-72957033D01*
X97706093Y-72925060D01*
X97615825Y-72884278D01*
X97506631Y-72832093D01*
X97371839Y-72765915D01*
X96999036Y-72581677D01*
X97297628Y-72091231D01*
X97336719Y-72027041D01*
X97406950Y-71911810D01*
X97469811Y-71808794D01*
X97523004Y-71721748D01*
X97564233Y-71654432D01*
X97591200Y-71610601D01*
X97601607Y-71594015D01*
X97604502Y-71594510D01*
X97627820Y-71610742D01*
X97668786Y-71644429D01*
X97720927Y-71690345D01*
X97813787Y-71769678D01*
X97979562Y-71886990D01*
X98140403Y-71968771D01*
X98256631Y-72009611D01*
X98453222Y-72051348D01*
X98646378Y-72058746D01*
X98833299Y-72032309D01*
X99011183Y-71972540D01*
X99177230Y-71879943D01*
X99328637Y-71755022D01*
X99412886Y-71663014D01*
X99531574Y-71492831D01*
X99628964Y-71295342D01*
X99705519Y-71069536D01*
X99761707Y-70814401D01*
X99764256Y-70798562D01*
X99776033Y-70695903D01*
X99784800Y-70568351D01*
X99790486Y-70424622D01*
X99793021Y-70273431D01*
X99792333Y-70123493D01*
X99788352Y-69983524D01*
X99781006Y-69862241D01*
X99770225Y-69768357D01*
X99728900Y-69555692D01*
X99659365Y-69307270D01*
X99571915Y-69089781D01*
X99466665Y-68903393D01*
X99343732Y-68748273D01*
X99203235Y-68624590D01*
X99045288Y-68532512D01*
X98870010Y-68472209D01*
X98831121Y-68464724D01*
X98733666Y-68454951D01*
X98619773Y-68451761D01*
X98502204Y-68454979D01*
X98393717Y-68464429D01*
X98307072Y-68479936D01*
X98162732Y-68529313D01*
X97995228Y-68619456D01*
X97846080Y-68738084D01*
X97819756Y-68763073D01*
X97772057Y-68807285D01*
X97738345Y-68837042D01*
X97724649Y-68846941D01*
X97721277Y-68842207D01*
X97700523Y-68812313D01*
X97663028Y-68758033D01*
X97611270Y-68682962D01*
X97547728Y-68590694D01*
X97474877Y-68484823D01*
X97395197Y-68368944D01*
X97069286Y-67894817D01*
X97142092Y-67873004D01*
X97149690Y-67870532D01*
X97199145Y-67850898D01*
X97270447Y-67819239D01*
X97355228Y-67779362D01*
X97445120Y-67735076D01*
X97484292Y-67715496D01*
X97701804Y-67614409D01*
X97902283Y-67536238D01*
X98093438Y-67478985D01*
X98282981Y-67440649D01*
X98478622Y-67419231D01*
X98688072Y-67412731D01*
X98833834Y-67416031D01*
G36*
X107241734Y-74810519D02*
G01*
X107241403Y-74944872D01*
X107241351Y-75045605D01*
X107241011Y-75149330D01*
X107240154Y-75229225D01*
X107238551Y-75288773D01*
X107235973Y-75331460D01*
X107232192Y-75360769D01*
X107226979Y-75380185D01*
X107220106Y-75393192D01*
X107211344Y-75403274D01*
X107202068Y-75411574D01*
X107184763Y-75421293D01*
X107159270Y-75427622D01*
X107120123Y-75431266D01*
X107061855Y-75432935D01*
X106979000Y-75433334D01*
X106913834Y-75432834D01*
X106771566Y-75426938D01*
X106652771Y-75413508D01*
X106553188Y-75391423D01*
X106468552Y-75359563D01*
X106394600Y-75316808D01*
X106327067Y-75262038D01*
X106319095Y-75254246D01*
X106270011Y-75189663D01*
X106228607Y-75108705D01*
X106200005Y-75023174D01*
X106192974Y-74971593D01*
X106388974Y-74971593D01*
X106413314Y-75039406D01*
X106452816Y-75100538D01*
X106514986Y-75157000D01*
X106596717Y-75196678D01*
X106702090Y-75222155D01*
X106704074Y-75222472D01*
X106769272Y-75230183D01*
X106847415Y-75235696D01*
X106922025Y-75237835D01*
X107046019Y-75237949D01*
X107046019Y-74651795D01*
X106944569Y-74651776D01*
X106940538Y-74651788D01*
X106872479Y-74654404D01*
X106792461Y-74660694D01*
X106716961Y-74669386D01*
X106650449Y-74681763D01*
X106550927Y-74716735D01*
X106474362Y-74769056D01*
X106419109Y-74839665D01*
X106390861Y-74907919D01*
X106388974Y-74971593D01*
X106192974Y-74971593D01*
X106189332Y-74944872D01*
X106191035Y-74916625D01*
X106207427Y-74840184D01*
X106237421Y-74760421D01*
X106276337Y-74688462D01*
X106319495Y-74635433D01*
X106345512Y-74612769D01*
X106418353Y-74560597D01*
X106498638Y-74520483D01*
X106590763Y-74491246D01*
X106699125Y-74471699D01*
X106828119Y-74460660D01*
X106982143Y-74456944D01*
X107034708Y-74456409D01*
X107095566Y-74455859D01*
X107143229Y-74458261D01*
X107179297Y-74466625D01*
X107205368Y-74483960D01*
X107223041Y-74513275D01*
X107233915Y-74557579D01*
X107239590Y-74619881D01*
X107240384Y-74651795D01*
X107241662Y-74703192D01*
X107241734Y-74810519D01*
G37*
X107241734Y-74810519D02*
X107241403Y-74944872D01*
X107241351Y-75045605D01*
X107241011Y-75149330D01*
X107240154Y-75229225D01*
X107238551Y-75288773D01*
X107235973Y-75331460D01*
X107232192Y-75360769D01*
X107226979Y-75380185D01*
X107220106Y-75393192D01*
X107211344Y-75403274D01*
X107202068Y-75411574D01*
X107184763Y-75421293D01*
X107159270Y-75427622D01*
X107120123Y-75431266D01*
X107061855Y-75432935D01*
X106979000Y-75433334D01*
X106913834Y-75432834D01*
X106771566Y-75426938D01*
X106652771Y-75413508D01*
X106553188Y-75391423D01*
X106468552Y-75359563D01*
X106394600Y-75316808D01*
X106327067Y-75262038D01*
X106319095Y-75254246D01*
X106270011Y-75189663D01*
X106228607Y-75108705D01*
X106200005Y-75023174D01*
X106192974Y-74971593D01*
X106388974Y-74971593D01*
X106413314Y-75039406D01*
X106452816Y-75100538D01*
X106514986Y-75157000D01*
X106596717Y-75196678D01*
X106702090Y-75222155D01*
X106704074Y-75222472D01*
X106769272Y-75230183D01*
X106847415Y-75235696D01*
X106922025Y-75237835D01*
X107046019Y-75237949D01*
X107046019Y-74651795D01*
X106944569Y-74651776D01*
X106940538Y-74651788D01*
X106872479Y-74654404D01*
X106792461Y-74660694D01*
X106716961Y-74669386D01*
X106650449Y-74681763D01*
X106550927Y-74716735D01*
X106474362Y-74769056D01*
X106419109Y-74839665D01*
X106390861Y-74907919D01*
X106388974Y-74971593D01*
X106192974Y-74971593D01*
X106189332Y-74944872D01*
X106191035Y-74916625D01*
X106207427Y-74840184D01*
X106237421Y-74760421D01*
X106276337Y-74688462D01*
X106319495Y-74635433D01*
X106345512Y-74612769D01*
X106418353Y-74560597D01*
X106498638Y-74520483D01*
X106590763Y-74491246D01*
X106699125Y-74471699D01*
X106828119Y-74460660D01*
X106982143Y-74456944D01*
X107034708Y-74456409D01*
X107095566Y-74455859D01*
X107143229Y-74458261D01*
X107179297Y-74466625D01*
X107205368Y-74483960D01*
X107223041Y-74513275D01*
X107233915Y-74557579D01*
X107239590Y-74619881D01*
X107240384Y-74651795D01*
X107241662Y-74703192D01*
X107241734Y-74810519D01*
%TD*%
M02*
