%TF.GenerationSoftware,KiCad,Pcbnew,(6.0.9)*%
%TF.CreationDate,2023-10-22T03:23:37+00:00*%
%TF.ProjectId,LED Torch,4c454420-546f-4726-9368-2e6b69636164,0.1*%
%TF.SameCoordinates,Original*%
%TF.FileFunction,Copper,L1,Top*%
%TF.FilePolarity,Positive*%
%FSLAX46Y46*%
G04 Gerber Fmt 4.6, Leading zero omitted, Abs format (unit mm)*
G04 Created by KiCad (PCBNEW (6.0.9)) date 2023-10-22 03:23:37*
%MOMM*%
%LPD*%
G01*
G04 APERTURE LIST*
%TA.AperFunction,ComponentPad*%
%ADD10C,1.800000*%
%TD*%
%TA.AperFunction,ComponentPad*%
%ADD11R,1.800000X1.800000*%
%TD*%
%TA.AperFunction,ComponentPad*%
%ADD12C,1.400000*%
%TD*%
%TA.AperFunction,ComponentPad*%
%ADD13O,1.400000X1.400000*%
%TD*%
%TA.AperFunction,SMDPad,CuDef*%
%ADD14R,2.540000X3.510000*%
%TD*%
%TA.AperFunction,Conductor*%
%ADD15C,0.250000*%
%TD*%
G04 APERTURE END LIST*
D10*
%TO.P,SW1,4*%
%TO.N,N/C*%
X73697500Y-74197500D03*
%TO.P,SW1,3*%
X68697500Y-74197500D03*
%TO.P,SW1,2,B*%
%TO.N,/Bat_pos*%
X73697500Y-68197500D03*
D11*
%TO.P,SW1,1,A*%
%TO.N,Net-(R1-Pad2)*%
X68697500Y-68197500D03*
%TD*%
D12*
%TO.P,R1,1*%
%TO.N,/LED_anode*%
X59690000Y-74930000D03*
D13*
%TO.P,R1,2*%
%TO.N,Net-(R1-Pad2)*%
X59690000Y-67310000D03*
%TD*%
D10*
%TO.P,D1,2,A*%
%TO.N,/LED_anode*%
X52070000Y-71120000D03*
D11*
%TO.P,D1,1,K*%
%TO.N,/LED_cathode*%
X54610000Y-71120000D03*
%TD*%
D14*
%TO.P,BT1,1,+*%
%TO.N,/Bat_pos*%
X84380000Y-71120000D03*
%TO.P,BT1,2,-*%
%TO.N,/LED_cathode*%
X113740000Y-71120000D03*
%TD*%
D15*
%TO.N,/LED_anode*%
X54610000Y-74930000D02*
X59690000Y-74930000D01*
X52070000Y-71120000D02*
X52070000Y-72390000D01*
X52070000Y-72390000D02*
X54610000Y-74930000D01*
%TO.N,/LED_cathode*%
X55880000Y-67310000D02*
X55880000Y-66040000D01*
X54610000Y-68580000D02*
X55880000Y-67310000D01*
X54610000Y-71120000D02*
X54610000Y-68580000D01*
X101600000Y-71120000D02*
X113740000Y-71120000D01*
X55880000Y-66040000D02*
X57150000Y-64770000D01*
X57150000Y-64770000D02*
X95250000Y-64770000D01*
X95250000Y-64770000D02*
X101600000Y-71120000D01*
%TO.N,/Bat_pos*%
X82550000Y-71120000D02*
X84380000Y-71120000D01*
X79627500Y-68197500D02*
X82550000Y-71120000D01*
X73697500Y-68197500D02*
X79627500Y-68197500D01*
%TO.N,Net-(R1-Pad2)*%
X65657500Y-68197500D02*
X68697500Y-68197500D01*
X64770000Y-67310000D02*
X65657500Y-68197500D01*
X59690000Y-67310000D02*
X64770000Y-67310000D01*
%TD*%
M02*
